<?xml version="1.0" encoding="utf-8"?>
<COLLADA xmlns="http://www.collada.org/2005/11/COLLADASchema" version="1.4.1" xmlns:xsi="http://www.w3.org/2001/XMLSchema-instance">
  <asset>
    <contributor>
      <author>Blender User</author>
      <authoring_tool>Blender 4.2.0 commit date:2024-07-16, commit time:06:20, hash:a51f293548ad</authoring_tool>
    </contributor>
    <created>2026-04-28T10:40:14</created>
    <modified>2026-04-28T10:40:14</modified>
    <unit name="meter" meter="1"/>
    <up_axis>Z_UP</up_axis>
  </asset>
  <library_images/>
  <library_geometries>
    <geometry id="铲斗-mesh" name="铲斗">
      <mesh>
        <source id="铲斗-mesh-positions">
          <float_array id="铲斗-mesh-positions-array" count="2640">0.004075467 0.00827831 161.1569 0 0 161 0 0 163 0.1880452 0.381966 164.1756 0.2883896 0.5857864 164.4142 0.5449727 1.106979 162.618 0.721857 1.466277 162.782 0.003032386 0.006165325 163.1569 0.01212209 0.02462327 163.3129 0.3872216 0.7865477 162.4142 0.04819035 0.09788691 163.618 0.1073181 0.2179869 163.908 0.4058704 0.8244295 164.618 0.5376116 1.092019 164.782 0.9135231 1.855595 162.9021 0.06470829 0.1314349 161.618 0.03653019 0.07419896 161.4669 0.01627951 0.03306221 161.3129 0.9846166 2 165 27.87705 56.62526 165 27.87705 56.62526 163 1.322061 2.685442 163 1.115248 2.265346 162.9754 0.8305907 1.687131 164.9754 0.6803498 1.381966 164.9021 0.1948177 0.3957263 162.045 0.1440942 0.2926956 161.908 0.1006349 0.2044171 161.7654 0.2524927 0.5128738 162.1756 6.143421 2 4 6.143421 2 161 128 2 4 128 2 161 133.6568 2 158.6569 129.2515 2 160.9015 130.4721 2 160.6085 131.6319 2 160.128 132.7023 2 159.4721 134.4721 2 157.7023 135.128 2 156.6319 135.6084 2 155.4721 135.9015 2 154.2515 136 2 153 136 2 12 135.9015 2 10.74853 135.6084 2 9.52787 135.128 2 8.368083 129.2515 2 4.098497 130.4721 2 4.391551 134.4721 2 7.297725 133.6568 2 6.343149 131.6319 2 4.87195 132.7023 2 5.527869 0.04819035 0.09788691 1.381971 0.3872216 0.7865477 2.585791 0.1073181 0.2179869 1.092024 0.5449727 1.106979 2.381973 0 0 4 0.004075467 0.00827831 3.843084 0 0 2.000004 0.01627951 0.03306221 3.687136 0.03653019 0.07419896 3.53311 0.721857 1.466277 2.217993 0.2883896 0.5857864 0.585787 0.1880452 0.381966 0.8244291 0.9135231 1.855595 2.09789 0.5376116 1.092019 0.217989 0.4058704 0.8244295 0.3819689 27.87705 56.62526 2.000004 27.87705 56.62526 0 1.322061 2.685442 2.000004 0.9846166 2 0 1.115248 2.265346 2.024628 0.8305907 1.687131 0.02462416 0.6803498 1.381966 0.09789317 0.06470829 0.1314349 3.381968 0.1006349 0.2044171 3.23464 0.1440942 0.2926956 3.092021 0.01212209 0.02462327 1.687132 0.003032386 0.006165325 1.843087 0.2524927 0.5128738 2.824433 0.1948177 0.3957263 2.955005 140 49.26846 123.8095 140 49.50029 123.9143 140 2 155 140 50.49971 123.9143 140 65 155 140 50.2535 123.9784 140 50 124 140 49.7465 123.9784 140 49.26846 43.80952 140 49.50029 43.91432 140 50.12721 121.0054 140 48.60816 123.0593 140 48.7227 123.2865 140 48.53367 122.816 140 48.60816 43.05929 140 48.7227 43.28646 140 48.87399 43.49102 140 49.05767 43.66706 140 48.87399 123.491 140 49.05767 123.6671 140 49.16004 41.25724 140 48.96209 41.41707 140 2 10.00001 140 48.79401 41.60805 140 48.66061 41.8247 140 49.16004 121.2572 140 49.38214 121.1332 140 49.62203 121.0484 140 50.73154 123.8095 140 50.94233 123.6671 140 51.12601 123.491 140 51.206 121.6081 140 51.03791 121.4171 140 50.49971 43.91432 140 50.73154 43.80952 140 50.94233 43.66706 140 51.12601 43.49102 140 48.56575 42.06077 140 48.51215 42.30948 140 48.50135 42.56367 140 49.87279 121.0054 140 48.53367 42.81602 140 48.56575 122.0608 140 48.51215 122.3095 140 48.50135 122.5637 140 51.49865 42.56367 140 51.48785 42.30948 140 65 10.00001 140 51.43425 42.06077 140 51.33938 41.8247 140 51.206 41.60805 140 51.03791 41.41707 140 50.83996 41.25724 140 48.96209 121.4171 140 48.79401 121.6081 140 48.66061 121.8247 140 51.33938 121.8247 140 50.83996 121.2572 140 50.61785 121.1332 140 50.37797 121.0484 140 49.7465 43.97843 140 50 44 140 50.2535 43.97843 140 51.27729 43.28646 140 51.39183 43.05929 140 51.46633 42.81602 140 50.61785 41.13316 140 50.37797 41.0484 140 50.12721 41.0054 140 49.87279 41.0054 140 49.62203 41.0484 140 49.38214 41.13316 140 51.27729 123.2865 140 51.39183 123.0593 140 51.46633 122.816 140 51.49865 122.5637 140 51.48785 122.3095 140 51.43425 122.0608 36.64329 64.24752 0 38.95897 64.81069 0 130 2 0 41.33461 65 0 130 65 0 29.09619 58.673 0 30.62425 60.50181 0 32.42266 62.06553 0 34.44603 63.32469 0 130 2 165 130 65 165 41.33461 65 165 38.95897 64.81069 165 34.44603 63.32469 165 32.42266 62.06553 165 30.62425 60.50181 165 36.64329 64.24752 165 29.09619 58.673 165 41.33461 65 2.000004 133.8778 65 3.909834 135.0711 65 4.928939 137.0711 65 2.928935 132.5399 65 161.9101 131.0902 65 162.5106 131.5643 65 164.8769 138.0902 65 4.122153 136.0902 65 6.122149 138.9101 65 5.460098 136.9101 65 7.460095 139.5106 65 6.909832 139.8769 65 8.43566 137.5106 65 8.909837 128 65 2.000004 129.5643 65 2.123117 131.5643 65 0.1231208 131.0902 65 2.48944 133.0902 65 0.4894361 132.5399 65 3.089935 134.5399 65 1.089938 135.8778 65 1.90983 41.33461 65 163 128 65 163 129.5643 65 162.8769 137.8769 65 10.43566 138 65 12 138 65 153 137.8769 65 154.5643 139.8769 65 156.5643 137.5106 65 156.0902 139.5106 65 158.0902 136.9101 65 157.5399 138.9101 65 159.5399 136.0902 65 158.8778 133.0902 65 164.5106 134.5399 65 163.9101 133.8778 65 161.0902 135.8778 65 163.0902 135.0711 65 160.0711 137.0711 65 162.0711 138.0902 65 160.8778 130 0 163 0 0 163 132.4721 0 162.6085 131.2515 0 162.9015 135.6569 0 4.343152 0 0 4 133.6319 0 162.128 131.2515 0 2.098493 132.4721 0 2.391554 133.6319 0 2.871953 136.4721 0 5.29772 137.128 0 6.368078 137.6085 0 7.527865 138 0 155 138 0 10.00001 137.9015 0 8.748524 130 0 2.000004 134.7023 0 3.527865 137.9015 0 156.2515 137.6085 0 157.4721 137.128 0 158.6319 136.4721 0 159.7023 135.6569 0 160.6569 134.7023 0 161.4721 138 50.49971 123.9143 138 50.2535 123.9784 138 50 124 138 49.7465 123.9784 138 4 153 138 49.50029 123.9143 138 49.26846 123.8095 138 49.05767 123.6671 138 48.87399 123.491 138 48.7227 123.2865 138 48.53367 42.81602 138 48.50135 42.56367 138 4 12 138 50.73154 43.80952 138 50.49971 43.91432 138 48.60816 123.0593 138 48.53367 122.816 138 48.50135 122.5637 138 49.7465 43.97843 138 49.50029 43.91432 138 49.26846 43.80952 138 49.05767 43.66706 138 48.87399 43.49102 138 48.7227 43.28646 138 48.60816 43.05929 138 48.51215 42.30948 138 48.56575 42.06077 138 48.66061 41.8247 138 48.66061 121.8247 138 48.79401 121.6081 138 48.96209 121.4171 138 51.27729 43.28646 138 51.12601 43.49102 138 50.94233 43.66706 138 50 44 138 50.2535 43.97843 138 48.51215 122.3095 138 48.56575 122.0608 138 49.16004 121.2572 138 49.38214 121.1332 138 49.62203 121.0484 138 49.87279 121.0054 138 50.12721 121.0054 138 50.37797 121.0484 138 51.39183 123.0593 138 51.27729 123.2865 138 51.12601 123.491 138 51.03791 41.41707 138 51.206 41.60805 138 50.94233 123.6671 138 50.73154 123.8095 138 49.38214 41.13316 138 49.62203 41.0484 138 51.33938 41.8247 138 51.43425 42.06077 138 51.48785 42.30948 138 51.49865 42.56367 138 51.46633 42.81602 138 51.39183 43.05929 138 50.61785 121.1332 138 50.83996 121.2572 138 51.03791 121.4171 138 48.79401 41.60805 138 48.96209 41.41707 138 49.16004 41.25724 138 49.87279 41.0054 138 50.12721 41.0054 138 50.37797 41.0484 138 50.61785 41.13316 138 50.83996 41.25724 138 51.48785 122.3095 138 51.49865 122.5637 138 51.46633 122.816 138 51.206 121.6081 138 51.33938 121.8247 138 51.43425 122.0608 3.164396 3.424649 2.000004 4.130259 3.742556 2.000004 5.128644 3.935378 2.000004 6.143421 4 2.000004 128 4 2.000004 38.95897 64.81069 2.000004 34.44603 63.32469 2.000004 32.42266 62.06553 2.000004 30.62425 60.50181 2.000004 36.64329 64.24752 2.000004 29.09619 58.673 2.000004 6.143421 4 163 5.128644 3.935378 163 4.130259 3.742556 163 3.164396 3.424649 163 128 4 163 30.62425 60.50181 163 32.42266 62.06553 163 34.44603 63.32469 163 38.95897 64.81069 163 36.64329 64.24752 163 29.09619 58.673 163 0 0 4 0 0 161 3.909148 1.568486 4 3.909148 1.568486 161 5.382337 1.951533 4 5.382337 1.951533 161 4.633546 1.806917 4 4.633546 1.806917 161 129.5643 4 162.8769 131.0902 4 162.5106 132.5399 4 161.9101 133.8778 4 161.0902 135.0711 4 160.0711 136.0902 4 158.8778 136.9101 4 157.5399 137.5106 4 156.0902 137.8769 4 154.5643 131.5643 2 164.8769 133.0902 2 164.5106 134.5399 2 163.9101 135.8778 2 163.0902 137.0711 2 162.0711 138.0902 2 160.8778 138.9101 2 159.5399 139.5106 2 158.0902 139.8769 2 156.5643 139.8769 2 8.43566 139.5106 2 6.909832 138.9101 2 5.460098 138.0902 2 4.122153 137.0711 2 2.928935 135.8778 2 1.90983 134.5399 2 1.089938 133.0902 2 0.4894361 131.5643 2 0.1231208 137.8769 4 10.43566 137.5106 4 8.909837 136.9101 4 7.460095 136.0902 4 6.122149 135.0711 4 4.928939 133.8778 4 3.909834 132.5399 4 3.089935 131.0902 4 2.48944 129.5643 4 2.123117 130 1.687131 0.02462416 130 1.381966 0.09789317 130 1.092019 0.217989 130 0.8244295 0.3819689 130 0.5857864 0.585787 130 0.381966 0.8244291 130 0.2179869 1.092024 130 0.09788691 1.381971 130 0.02462327 1.687132 130 0 2.000004 0 0 2.000004 131.5605 1.687131 0.1474395 131.549 1.381966 0.2197995 131.5302 1.092019 0.3384203 131.5046 0.8244295 0.500381 131.4727 0.5857864 0.7016957 131.4354 0.381966 0.9374023 131.3935 0.2179869 1.201697 131.3482 0.09788691 1.488075 131.3004 0.02462327 1.78948 131.2515 0 2.098493 133.0826 1.687131 0.5128533 133.0599 1.381966 0.5825311 133.0228 1.092019 0.696756 132.9721 0.8244295 0.8527115 132.9091 0.5857864 1.046553 132.8354 0.381966 1.27352 132.7527 0.2179869 1.52801 132.6631 0.09788691 1.803763 132.5688 0.02462327 2.093993 132.4721 0 2.391554 134.5287 1.687131 1.11188 134.4955 1.381966 1.177155 134.4409 1.092019 1.284167 134.3665 0.8244295 1.430273 134.274 0.5857864 1.611881 134.1656 0.381966 1.824513 134.0441 0.2179869 2.062932 133.9125 0.09788691 2.32128 133.774 0.02462327 2.593182 133.6319 0 2.871953 135.8634 1.687131 1.929753 135.8203 1.381966 1.989022 135.7497 1.092019 2.086185 135.6533 0.8244295 2.21885 135.5335 0.5857864 2.383746 135.3933 0.381966 2.576813 135.236 0.2179869 2.793297 135.0655 0.09788691 3.027864 134.8862 0.02462327 3.274754 134.7023 0 3.527865 137.0536 1.687131 2.946347 137.0018 1.381966 2.998151 136.9169 1.092019 3.083073 136.801 0.8244295 3.199026 136.6569 0.5857864 3.34315 136.4881 0.381966 3.511898 136.2989 0.2179869 3.701113 136.0939 0.09788691 3.906131 135.8781 0.02462327 4.121914 135.6569 0 4.343152 138.0702 1.687131 4.136622 138.011 1.381966 4.179687 137.9138 1.092019 4.25028 137.7811 0.8244295 4.346661 137.6163 0.5857864 4.466466 137.4232 0.381966 4.606739 137.2067 0.2179869 4.76402 136.9721 0.09788691 4.934453 136.7252 0.02462327 5.113825 136.4721 0 5.29772 138.8881 1.687131 5.471274 138.8228 1.381966 5.504541 138.7158 1.092019 5.559064 138.5697 0.8244295 5.633511 138.3881 0.5857864 5.726039 138.1755 0.381966 5.834378 137.9371 0.2179869 5.955867 137.6787 0.09788691 6.087497 137.4068 0.02462327 6.22604 137.128 0 6.368078 139.4871 1.687131 6.917439 139.4175 1.381966 6.940082 139.3032 1.092019 6.977193 139.1473 0.8244295 7.027864 138.9534 0.5857864 7.090852 138.7265 0.381966 7.164597 138.472 0.2179869 7.247284 138.1962 0.09788691 7.336884 137.906 0.02462327 7.431187 137.6085 0 7.527865 139.8526 1.687131 8.439512 139.7802 1.381966 8.45097 139.6616 1.092019 8.469761 139.4996 0.8244295 8.495413 139.2983 0.5857864 8.527295 139.0626 0.381966 8.564629 138.7983 0.2179869 8.606487 138.5119 0.09788691 8.651845 138.2105 0.02462327 8.699582 137.9015 0 8.748524 139.9754 1.687131 10.00001 139.9021 1.381966 10.00001 139.782 1.092019 10.00001 139.618 0.8244295 10.00001 139.4142 0.5857864 10.00001 139.1756 0.381966 10.00001 138.908 0.2179869 10.00001 138.618 0.09788691 10.00001 138.3129 0.02462327 10.00001 138 0 10.00001 138 0 155 138.3129 0.02462327 155 138.618 0.09788691 155 138.908 0.2179869 155 139.1756 0.381966 155 139.4142 0.5857864 155 139.618 0.8244295 155 139.782 1.092019 155 139.9021 1.381966 155 139.9754 1.687131 155 139.8526 1.687131 156.5605 139.7802 1.381966 156.549 139.6616 1.092019 156.5302 139.4996 0.8244295 156.5046 139.2983 0.5857864 156.4727 139.0626 0.381966 156.4354 138.7983 0.2179869 156.3935 138.5119 0.09788691 156.3482 138.2105 0.02462327 156.3004 137.9015 0 156.2515 139.4871 1.687131 158.0826 139.4175 1.381966 158.0599 139.3032 1.092019 158.0228 139.1473 0.8244295 157.9721 138.9534 0.5857864 157.9091 138.7265 0.381966 157.8354 138.472 0.2179869 157.7527 138.1962 0.09788691 157.6631 137.906 0.02462327 157.5688 137.6085 0 157.4721 138.8881 1.687131 159.5287 138.8228 1.381966 159.4955 138.7158 1.092019 159.4409 138.5697 0.8244295 159.3665 138.3881 0.5857864 159.274 138.1755 0.381966 159.1656 137.9371 0.2179869 159.0441 137.6787 0.09788691 158.9125 137.4068 0.02462327 158.774 137.128 0 158.6319 138.0702 1.687131 160.8634 138.011 1.381966 160.8203 137.9138 1.092019 160.7497 137.7811 0.8244295 160.6533 137.6163 0.5857864 160.5335 137.4232 0.381966 160.3933 137.2067 0.2179869 160.236 136.9721 0.09788691 160.0655 136.7252 0.02462327 159.8862 136.4721 0 159.7023 137.0536 1.687131 162.0537 137.0018 1.381966 162.0019 136.9169 1.092019 161.9169 136.801 0.8244295 161.801 136.6569 0.5857864 161.6569 136.4881 0.381966 161.4881 136.2989 0.2179869 161.2989 136.0939 0.09788691 161.0939 135.8781 0.02462327 160.8781 135.6569 0 160.6569 135.8634 1.687131 163.0702 135.8203 1.381966 163.011 135.7497 1.092019 162.9138 135.6533 0.8244295 162.7812 135.5335 0.5857864 162.6163 135.3933 0.381966 162.4232 135.236 0.2179869 162.2067 135.0655 0.09788691 161.9721 134.8862 0.02462327 161.7252 134.7023 0 161.4721 134.5287 1.687131 163.8881 134.4955 1.381966 163.8228 134.4409 1.092019 163.7158 134.3665 0.8244295 163.5697 134.274 0.5857864 163.3881 134.1656 0.381966 163.1755 134.0441 0.2179869 162.9371 133.9125 0.09788691 162.6787 133.774 0.02462327 162.4068 133.6319 0 162.128 133.0826 1.687131 164.4871 133.0599 1.381966 164.4175 133.0228 1.092019 164.3032 132.9721 0.8244295 164.1473 132.9091 0.5857864 163.9535 132.8354 0.381966 163.7265 132.7527 0.2179869 163.472 132.6631 0.09788691 163.1962 132.5688 0.02462327 162.906 132.4721 0 162.6085 131.5605 1.687131 164.8526 131.549 1.381966 164.7802 131.5302 1.092019 164.6616 131.5046 0.8244295 164.4996 131.4727 0.5857864 164.2983 131.4354 0.381966 164.0626 131.3935 0.2179869 163.7983 131.3482 0.09788691 163.5119 131.3004 0.02462327 163.2105 131.2515 0 162.9015 130 1.687131 164.9754 130 1.381966 164.9021 130 1.092019 164.782 130 0.8244295 164.618 130 0.5857864 164.4142 130 0.381966 164.1756 130 0.2179869 163.908 130 0.09788691 163.618 130 0.02462327 163.3129 130 0 163 0 0 163 3.2809 3.134281 162.9754 3.394537 2.851063 162.9021 3.502511 2.581969 162.782 3.602154 2.333624 162.618 3.691018 2.112144 162.4142 3.766917 1.922982 162.1756 3.827974 1.770796 161.908 3.8727 1.659333 161.618 3.899984 1.591339 161.3129 0 0 161 4.627347 1.830748 161.3129 5.379215 1.975958 161.3129 6.143421 2.024623 161.3129 5.369916 2.04863 161.618 6.143421 2.097887 161.618 5.354688 2.167759 161.908 6.143421 2.217987 161.908 5.333886 2.330414 162.1756 6.143421 2.381966 162.1756 5.308032 2.532588 162.4142 6.143421 2.585786 162.4142 5.27776 2.769304 162.618 6.143421 2.824429 162.618 5.243815 3.034731 162.782 6.143421 3.092019 162.782 5.207039 3.322336 162.9021 6.143421 3.381966 162.9021 5.168326 3.625036 162.9754 6.143421 3.687131 162.9754 4.608914 1.901654 161.618 4.578695 2.017889 161.908 4.537426 2.176591 162.1756 4.486136 2.373852 162.4142 4.426084 2.604816 162.618 4.358746 2.863794 162.782 4.285783 3.14441 162.9021 4.20899 3.439755 162.9754 128 2.024623 161.3129 128 2.097887 161.618 128 2.217987 161.908 128 2.381966 162.1756 128 2.585786 162.4142 128 2.824429 162.618 128 3.092019 162.782 128 3.381966 162.9021 128 3.687131 162.9754 129.3004 2.024623 161.2105 130.5688 2.024623 160.906 131.774 2.024623 160.4068 132.8862 2.024623 159.7252 133.8781 2.024623 158.8781 134.7252 2.024623 157.8862 135.4068 2.024623 156.774 135.906 2.024623 155.5688 136.2105 2.024623 154.3004 136.3129 2.024623 153 129.3482 2.097887 161.5119 130.6631 2.097887 161.1962 131.9125 2.097887 160.6787 133.0655 2.097887 159.9721 134.0939 2.097887 159.0939 134.9721 2.097887 158.0655 135.6787 2.097887 156.9125 136.1962 2.097887 155.6631 136.5119 2.097887 154.3482 136.618 2.097887 153 129.3935 2.217987 161.7983 130.7527 2.217987 161.472 132.0441 2.217987 160.9371 133.236 2.217987 160.2067 134.2989 2.217987 159.2989 135.2067 2.217987 158.236 135.9371 2.217987 157.0441 136.472 2.217987 155.7527 136.7983 2.217987 154.3935 136.908 2.217987 153 129.4354 2.381966 162.0626 130.8354 2.381966 161.7265 132.1656 2.381966 161.1755 133.3933 2.381966 160.4232 134.4881 2.381966 159.4881 135.4232 2.381966 158.3933 136.1755 2.381966 157.1656 136.7265 2.381966 155.8354 137.0626 2.381966 154.4354 137.1756 2.381966 153 129.4727 2.585786 162.2983 130.9091 2.585786 161.9534 132.274 2.585786 161.3881 133.5335 2.585786 160.6163 134.6569 2.585786 159.6569 135.6163 2.585786 158.5335 136.3881 2.585786 157.274 136.9534 2.585786 155.9092 137.2983 2.585786 154.4727 137.4142 2.585786 153 129.5046 2.824429 162.4996 130.9721 2.824429 162.1473 132.3665 2.824429 161.5697 133.6533 2.824429 160.7812 134.801 2.824429 159.801 135.7812 2.824429 158.6533 136.5697 2.824429 157.3665 137.1473 2.824429 155.9721 137.4996 2.824429 154.5046 137.618 2.824429 153 129.5302 3.092019 162.6616 131.0228 3.092019 162.3032 132.4409 3.092019 161.7158 133.7497 3.092019 160.9138 134.9169 3.092019 159.9169 135.9138 3.092019 158.7497 136.7158 3.092019 157.4409 137.3032 3.092019 156.0228 137.6616 3.092019 154.5302 137.782 3.092019 153 129.549 3.381966 162.7802 131.0599 3.381966 162.4175 132.4955 3.381966 161.8228 133.8203 3.381966 161.011 135.0018 3.381966 160.0018 136.011 3.381966 158.8203 136.8228 3.381966 157.4955 137.4175 3.381966 156.0599 137.7802 3.381966 154.549 137.9021 3.381966 153 129.5605 3.687131 162.8526 131.0826 3.687131 162.4871 132.5287 3.687131 161.8881 133.8634 3.687131 161.0702 135.0536 3.687131 160.0537 136.0702 3.687131 158.8634 136.8881 3.687131 157.5287 137.4871 3.687131 156.0826 137.8526 3.687131 154.5605 137.9754 3.687131 153 136.3129 2.024623 12 136.618 2.097887 12 136.908 2.217987 12 137.1756 2.381966 12 137.4142 2.585786 12 137.618 2.824429 12 137.782 3.092019 12 137.9021 3.381966 12 137.9754 3.687131 12 136.2105 2.024623 10.69958 135.906 2.024623 9.431183 135.4068 2.024623 8.226037 134.7252 2.024623 7.113822 133.8781 2.024623 6.121919 132.8862 2.024623 5.27475 131.774 2.024623 4.593186 130.5688 2.024623 4.093997 129.3004 2.024623 3.789477 128 2.024623 3.687136 136.5119 2.097887 10.65185 136.1962 2.097887 9.336882 135.6787 2.097887 8.087501 134.9721 2.097887 6.934449 134.0939 2.097887 5.906135 133.0655 2.097887 5.027868 131.9125 2.097887 4.321277 130.6631 2.097887 3.803767 129.3482 2.097887 3.488071 128 2.097887 3.381968 136.7983 2.217987 10.60649 136.472 2.217987 9.247288 135.9371 2.217987 7.955864 135.2067 2.217987 6.764025 134.2989 2.217987 5.70111 133.236 2.217987 4.793294 132.0441 2.217987 4.062936 130.7527 2.217987 3.528006 129.3935 2.217987 3.201693 128 2.217987 3.092021 137.0626 2.381966 10.56462 136.7265 2.381966 9.164594 136.1755 2.381966 7.834383 135.4232 2.381966 6.606735 134.4881 2.381966 5.511895 133.3933 2.381966 4.57681 132.1656 2.381966 3.82451 130.8354 2.381966 3.273517 129.4354 2.381966 2.937399 128 2.381966 2.824433 137.2983 2.585786 10.5273 136.9534 2.585786 9.090848 136.3881 2.585786 7.726044 135.6163 2.585786 6.466471 134.6569 2.585786 5.343147 133.5335 2.585786 4.383743 132.274 2.585786 3.611877 130.9091 2.585786 3.046557 129.4727 2.585786 2.701692 128 2.585786 2.585791 137.4996 2.824429 10.49541 137.1473 2.824429 9.027869 136.5697 2.824429 7.633507 135.7812 2.824429 6.346665 134.801 2.824429 5.199023 133.6533 2.824429 4.218854 132.3665 2.824429 3.43027 130.9721 2.824429 2.852708 129.5046 2.824429 2.500385 128 2.824429 2.381973 137.6616 3.092019 10.46976 137.3032 3.092019 8.977197 136.7158 3.092019 7.559061 135.9138 3.092019 6.250277 134.9169 3.092019 5.083076 133.7497 3.092019 4.086189 132.4409 3.092019 3.284164 131.0228 3.092019 2.696753 129.5302 3.092019 2.338424 128 3.092019 2.217993 137.7802 3.381966 10.45097 137.4175 3.381966 8.940086 136.8228 3.381966 7.504538 136.011 3.381966 6.17969 135.0018 3.381966 4.998155 133.8203 3.381966 3.989026 132.4955 3.381966 3.177159 131.0599 3.381966 2.582535 129.549 3.381966 2.219804 128 3.381966 2.09789 137.8526 3.687131 10.43951 137.4871 3.687131 8.917444 136.8881 3.687131 7.471278 136.0702 3.687131 6.136626 135.0536 3.687131 4.946343 133.8634 3.687131 3.929757 132.5287 3.687131 3.111876 131.0826 3.687131 2.512857 129.5605 3.687131 2.147444 128 3.687131 2.024628 0 0 4 3.899984 1.591339 3.687136 3.8727 1.659333 3.381968 3.827974 1.770796 3.092021 3.766917 1.922982 2.824433 3.691018 2.112144 2.585791 3.602154 2.333624 2.381973 3.502511 2.581969 2.217993 3.394537 2.851063 2.09789 3.2809 3.134281 2.024628 6.143421 2.024623 3.687136 6.143421 2.097887 3.381968 6.143421 2.217987 3.092021 6.143421 2.381966 2.824433 6.143421 2.585786 2.585791 6.143421 2.824429 2.381973 6.143421 3.092019 2.217993 6.143421 3.381966 2.09789 6.143421 3.687131 2.024628 5.379215 1.975958 3.687136 4.627347 1.830748 3.687136 4.608914 1.901654 3.381968 4.578695 2.017889 3.092021 4.537426 2.176591 2.824433 4.486136 2.373852 2.585791 4.426084 2.604816 2.381973 4.358746 2.863794 2.217993 4.285783 3.14441 2.09789 4.20899 3.439755 2.024628 5.369916 2.04863 3.381968 5.354688 2.167759 3.092021 5.333886 2.330414 2.824433 5.308032 2.532588 2.585791 5.27776 2.769304 2.381973 5.243815 3.034731 2.217993 5.207039 3.322336 2.09789 5.168326 3.625036 2.024628</float_array>
          <technique_common>
            <accessor source="#铲斗-mesh-positions-array" count="880" stride="3">
              <param name="X" type="float"/>
              <param name="Y" type="float"/>
              <param name="Z" type="float"/>
            </accessor>
          </technique_common>
        </source>
        <source id="铲斗-mesh-normals">
          <float_array id="铲斗-mesh-normals-array" count="2571">-0.6887377 0.7239333 -0.03950858 -0.01690566 -0.9998572 0 -0.8971814 0.4416623 -1.08927e-5 -0.7810117 -0.3496227 0.5174793 -0.7553042 -0.2534294 0.6043916 -0.671541 0.5915221 -0.4462447 -0.6646687 0.5418971 -0.5143569 -0.8415401 -0.5351312 0.07378977 -0.834435 -0.5260973 0.1641342 -0.6782084 0.6323677 -0.3743587 -0.8211583 -0.4947444 0.2844771 -0.8035077 -0.43169 0.4099014 -0.7279684 -0.1478942 0.6694694 -0.7002894 -0.03738486 0.7128794 -0.6578835 0.4834029 -0.5775042 -0.6856331 0.7105779 -0.1580705 -0.6870801 0.7168447 -0.1185527 -0.6880618 0.7213364 -0.07902532 -0.6346374 0.2758133 0.7219159 -0.6291652 0.3414577 0.6982535 -0.6291764 0.341467 -0.6982389 -0.6414688 0.3465505 -0.6844126 -0.651572 0.4159776 -0.6343631 -0.6475865 0.1844592 0.7393285 -0.6732844 0.07439875 0.7356311 -0.6795417 0.679869 -0.2756832 -0.6818562 0.6921269 -0.2367118 -0.6839178 0.7023218 -0.1974858 -0.679966 0.6613661 -0.3166092 -0.03179281 0.9987227 0.03927165 -0.0317924 0.9987227 -0.03927087 -0.001621901 0.9991888 0.04023998 -0.001622259 0.9991887 -0.04024058 -0.02914685 0.9991501 -0.02914702 -0.006447732 0.9991502 -0.0407111 -0.01273763 0.9991501 -0.0392028 -0.01871329 0.9991502 -0.03672713 -0.02422845 0.9991502 -0.0333479 -0.0333473 0.9991501 -0.02422851 -0.03672772 0.9991502 -0.01871329 -0.03920346 0.9991502 -0.01273804 -0.04071152 0.9991502 -0.00644809 -0.04024022 0.9991888 -0.001621901 -0.0402404 0.9991887 0.001621961 -0.04071062 0.9991502 0.006447911 -0.03920209 0.9991502 0.01273745 -0.0367282 0.9991502 0.01871371 -0.006448268 0.9991501 0.04071193 -0.01273775 0.9991501 0.03920257 -0.03334683 0.9991502 0.02422785 -0.02914589 0.9991502 0.02914607 -0.01871371 0.9991502 0.03672808 -0.02422815 0.9991502 0.03334724 -0.8211552 -0.4947526 -0.2844715 -0.678201 0.6323778 0.3743553 -0.8035104 -0.4316895 -0.4098966 -0.6715548 0.5915248 0.4462205 -0.8971712 0.4416829 0 -0.6887367 0.7239344 0.03950846 -0.9973517 -0.07273077 1.33077e-5 -0.6880597 0.721338 0.07902824 -0.6870769 0.7168471 0.118556 -0.6646758 0.5418918 0.5143534 -0.7553019 -0.2534438 -0.6043882 -0.7810145 -0.3496284 -0.5174713 -0.657883 0.4834082 0.5775002 -0.7002871 -0.03739261 -0.7128814 -0.7279719 -0.1478915 -0.6694662 -0.6291674 0.3414612 0.6982498 -0.6291535 0.3414547 -0.6982655 -0.6414679 0.3465433 0.6844171 -0.6346361 0.2757982 -0.7219227 -0.6515746 0.4159843 0.6343562 -0.647592 0.1844564 -0.7393243 -0.673283 0.07440799 -0.7356314 -0.6856458 0.7105669 0.1580647 -0.6839184 0.7023217 0.197484 -0.6818496 0.6921311 0.2367185 -0.8344311 -0.5261036 -0.1641334 -0.8415362 -0.5351368 -0.07379448 -0.6807756 0.6611419 0.3153347 -0.6799038 0.6794588 0.2758018 0.7266958 0.3350233 -0.5997271 0.7267079 0.2288649 -0.6477009 0.9984632 -0.03918761 0.0391885 0.7267084 -0.2288195 -0.6477165 0.7151669 0.6983886 0.02809798 0.7267122 -0.116086 -0.6770624 0.7266916 -3.63131e-6 -0.6869639 0.7266992 0.116118 -0.6770708 0.7266991 0.3350178 -0.5997262 0.7267026 0.2288516 -0.6477116 0.7266493 -0.05833142 0.6845278 0.7267109 0.6374086 -0.256128 0.7266931 0.5849686 -0.3601791 0.7266985 0.6715388 -0.1447237 0.7266815 0.6374464 -0.2561178 0.7267059 0.5849582 -0.36017 0.7267076 0.5156718 -0.4538488 0.7267029 0.4315477 -0.5344806 0.7267013 0.5156889 -0.4538395 0.7267082 0.4315589 -0.5344644 0.7267029 0.3846679 0.5691515 0.7267104 0.4753301 0.4959368 0.9984639 -0.03916561 -0.03918993 0.7266907 0.5523228 0.4084855 0.726711 0.6133915 0.3092605 0.7267078 0.3846724 0.5691424 0.7266959 0.282948 0.6259821 0.7267121 0.1731005 0.6647751 0.7267084 -0.3349841 -0.5997338 0.7267087 -0.4315658 -0.5344581 0.72669 -0.5156935 -0.4538523 0.7266985 -0.5523197 0.4084756 0.7266816 -0.4753717 0.4959393 0.7266805 -0.2288644 -0.647732 0.726699 -0.3350358 -0.5997163 0.7267012 -0.4315528 -0.5344789 0.7267184 -0.515636 -0.4538723 0.7267083 0.6568349 0.2011544 0.7267171 0.6813723 0.08725941 0.7267077 0.6863275 -0.02916193 0.7266922 0.05827122 0.6844874 0.726821 0.671401 -0.1447482 0.7267183 0.6568228 0.2011578 0.7266727 0.6814205 0.08725255 0.7266964 0.6863396 -0.02916049 0.7265661 -0.6864786 -0.02913677 0.7267841 -0.6813 0.08726537 0.7151727 0.6983829 -0.02809745 0.7267128 -0.6568297 0.2011548 0.7266859 -0.6134172 0.3092688 0.7266954 -0.5523174 0.4084843 0.7266973 -0.475341 0.4959456 0.7267084 -0.38467 0.5691431 0.7267047 0.4753334 0.4959422 0.726693 0.5523197 0.4084853 0.7267237 0.6133726 0.3092681 0.7266893 -0.6134147 0.3092655 0.726705 -0.384651 0.5691604 0.7266853 -0.2830126 0.6259652 0.7267097 -0.1731299 0.6647701 0.7267078 0.1161248 -0.6770605 0.7266947 3.63327e-5 -0.6869606 0.7267129 -0.1160607 -0.677066 0.7267138 -0.5849416 -0.360181 0.7267071 -0.6374087 -0.2561389 0.7268874 -0.6713266 -0.1447597 0.7266912 -0.2829596 0.6259822 0.7267081 -0.1731107 0.6647768 0.7267037 -0.05826807 0.6844754 0.7266973 0.05827826 0.6844815 0.7267088 0.1731081 0.6647766 0.7266977 0.2829559 0.6259765 0.7266968 -0.5849612 -0.3601837 0.7267197 -0.6373909 -0.256147 0.7267137 -0.6715226 -0.1447229 0.7267002 -0.6863365 -0.02914136 0.7267072 -0.681383 0.08725762 0.7268788 -0.6566317 0.2012018 -0.2264773 0.6878138 -0.6896523 -0.1146854 0.7150058 -0.6896477 0.03919297 -0.03919285 -0.9984627 -0.02845489 0.7152721 -0.6982666 0.02810031 0.6983779 -0.7151774 -0.5908266 0.4187026 -0.6896463 -0.5170616 0.5069953 -0.6896399 -0.4302346 0.5824805 -0.6896483 -0.3325529 0.6432626 -0.6896534 0.03919214 -0.03917646 0.9984635 0.02809786 0.6983877 0.7151679 -0.02845561 0.7152838 0.6982546 -0.1146858 0.7150103 0.689643 -0.3325496 0.6432719 0.6896464 -0.4302713 0.5824646 0.6896387 -0.5170446 0.5069918 0.6896553 -0.2264814 0.6878207 0.689644 -0.5908368 0.4186937 0.6896431 -0.02845585 0.7152807 0.6982578 -0.4047163 0.7251936 0.5570448 -0.4868778 0.7251905 0.4868765 0.5119002 0.6898686 -0.5118981 -0.3125896 0.7252022 -0.6134896 -0.2127723 0.725201 -0.6548371 0.1132478 0.689867 0.7150234 0.5856821 0.6898587 -0.425525 -0.5570402 0.7251989 0.4047132 0.6450421 0.6898545 -0.3286662 -0.6134885 0.7252026 0.3125911 0.6885066 0.6898636 -0.2237121 0.7150238 0.6898663 -0.1132503 -0.6548353 0.725204 0.2127675 -0.02740466 0.7160553 0.6975054 -0.1077119 0.725196 0.6800654 0.1132476 0.6898753 -0.7150155 -0.2127702 0.7251983 0.6548407 0.2237084 0.6898662 -0.6885051 -0.3125885 0.7252003 0.6134924 0.3286638 0.6898556 -0.6450421 0.4255252 0.6898564 -0.5856848 -0.02845466 0.7152648 -0.6982741 -0.02740424 0.7160467 -0.6975142 -0.1077127 0.7251929 -0.6800685 -0.6800722 0.7251896 0.1077116 -0.6974999 0.7160606 0.0274074 -0.6975129 0.716048 -0.02740693 -0.6800682 0.7251937 -0.1077095 0.7150174 0.6898735 0.1132472 -0.654839 0.7252005 -0.2127679 0.6885024 0.6898675 0.2237129 -0.6134908 0.7252004 -0.3125916 0.6450406 0.6898549 0.3286683 -0.5570453 0.7251929 -0.404717 0.2237186 0.6898621 0.6885059 0.3286691 0.6898562 0.6450389 -0.4047129 0.7252013 -0.5570374 0.4255223 0.689857 0.5856862 -0.4868791 0.7251895 -0.4868769 0.5118985 0.6898683 0.5119001 0.5856826 0.6898577 0.4255259 0 -1 0 -0.7267072 -0.228844 -0.6477091 -0.7267112 -0.1160853 -0.6770637 -0.7266907 1.4114e-5 -0.6869648 -0.7267149 0.1160915 -0.6770586 -0.9984616 0.03922355 -0.03919363 -0.7266994 0.2288553 -0.647714 -0.7266967 0.3350166 -0.5997298 -0.7267089 0.4315468 -0.5344733 -0.7267053 0.5156779 -0.4538455 -0.7266899 0.5849729 -0.3601785 -0.7267054 0.6715293 -0.1447331 -0.7267144 0.6863209 -0.02915251 -0.9984627 0.03919392 0.03919082 -0.7267081 -0.3349983 -0.5997263 -0.7267184 -0.2288714 -0.6476869 -0.7267102 0.6374061 -0.2561365 -0.7266952 0.6715407 -0.1447318 -0.726685 0.6863521 -0.0291509 -0.7267085 0.1161167 -0.6770611 -0.7266923 0.2288722 -0.6477158 -0.7267108 0.3349972 -0.5997236 -0.7267099 0.4315363 -0.5344803 -0.7266929 0.5156904 -0.4538514 -0.7266917 0.5849764 -0.3601692 -0.7266835 0.6374407 -0.256126 -0.7266824 0.6814098 0.08725535 -0.7267163 0.6568257 0.2011552 -0.726705 0.6133919 0.3092738 -0.7267577 0.6133174 0.3092978 -0.7267148 0.552286 0.4084921 -0.7267248 0.4752822 0.4959617 -0.7267042 -0.5849604 -0.36017 -0.7266803 -0.51572 -0.4538378 -0.7267068 -0.4315405 -0.5344812 -0.7266899 -1.53699e-7 -0.6869658 -0.7267003 -0.1161386 -0.6770662 -0.7252121 0.6829969 0.08707875 -0.726417 0.6571813 0.2010751 -0.7266698 0.3847523 0.5691369 -0.7267132 0.2828923 0.6259871 -0.7267089 0.1731199 0.6647734 -0.7266975 0.05828887 0.6844802 -0.726695 -0.05829912 0.684482 -0.7267089 -0.1731327 0.6647701 -0.7267126 -0.6374 -0.2561449 -0.7267246 -0.5849218 -0.3601914 -0.7266914 -0.5157016 -0.4538409 -0.7267096 -0.4753152 0.4959522 -0.7267013 -0.5523126 0.4084803 -0.726713 -0.4315583 -0.5344583 -0.726694 -0.3350201 -0.599731 -0.7266997 0.2829793 0.6259636 -0.7266955 0.1731297 0.6647855 -0.7267037 -0.6133953 0.3092701 -0.7267323 -0.6568036 0.2011699 -0.7266373 -0.6814589 0.08724755 -0.7267927 -0.6862375 -0.02916443 -0.7267007 -0.6715342 -0.144734 -0.7266817 -0.6374427 -0.2561261 -0.7267121 -0.2828973 0.6259863 -0.7266787 -0.3847342 0.5691376 -0.7267145 -0.4752978 0.4959619 -0.7266881 0.5523231 0.4084895 -0.726713 0.4753165 0.4959461 -0.7267152 0.3846378 0.5691562 -0.7266992 0.05822461 0.6844839 -0.7267034 -0.05824857 0.6844775 -0.7267094 -0.1731017 0.6647776 -0.726687 -0.2829883 0.6259743 -0.7267096 -0.3846663 0.5691441 -0.7265942 -0.6815056 0.08724242 -0.7267028 -0.6863329 -0.02916008 -0.7266893 -0.6715479 -0.1447275 -0.7266987 -0.5523244 0.4084689 -0.7267 -0.6134025 0.3092645 -0.7270651 -0.6564059 0.2012652 -0.01321125 0.03614783 0.9992592 -0.009480357 0.03646141 0.9992901 -0.004778683 0.03736943 0.9992901 -0.001199483 0.03846687 0.9992592 -0.03919053 0.03919267 0.9984629 -0.1146889 0.7150101 0.6896428 -0.3325587 0.6432695 0.6896442 -0.4302341 0.5824758 0.6896526 -0.5170568 0.5069863 0.6896502 -0.2264821 0.6878206 0.6896439 -0.5908266 0.4186985 0.6896489 -0.001200616 0.03847324 -0.9992589 -0.004782795 0.03737485 -0.9992899 -0.0094949 0.03646665 -0.9992899 -0.01320981 0.0361523 -0.999259 -0.03918832 0.03919839 -0.9984627 -0.5170549 0.5069883 -0.6896499 -0.4302522 0.5824705 -0.6896457 -0.3325569 0.6432707 -0.689644 -0.1146845 0.7150106 -0.689643 -0.2264689 0.6878231 -0.6896458 -0.5908251 0.4187006 -0.6896489 -0.3723784 0.928081 0 -0.3723784 0.928081 0 -0.342737 0.93862 0.03903657 -0.3427389 0.9386193 -0.03903621 -0.1267499 0.991155 0.03932207 -0.1267458 0.9911556 -0.03932201 -0.2514508 0.9670709 0.03932315 -0.2514516 0.9670708 -0.03932249 -0.1563108 0.03918415 -0.9869304 -0.3087842 0.03916448 -0.9503256 -0.453636 0.03917986 -0.8903254 -0.5873273 0.03919559 -0.8083999 -0.7065706 0.0391466 -0.706559 -0.8083966 0.03915518 -0.5873346 -0.8903182 0.03920894 -0.4536477 -0.9503268 0.03918915 -0.308777 -0.9869322 0.03913921 -0.1563105 0.1563133 -0.03918576 0.98693 0.3087781 -0.03918772 0.9503266 0.4536345 -0.03918218 0.8903261 0.5873304 -0.03921848 0.8083966 0.7065702 -0.0391469 0.7065594 0.8083978 -0.03915435 0.5873329 0.8903214 -0.03920698 0.4536415 0.9503269 -0.03915429 0.3087812 0.9869292 -0.03919398 0.1563162 0.9869289 -0.0392217 -0.1563108 0.950326 -0.03915625 -0.3087837 0.8903237 -0.03917676 -0.4536398 0.8083949 -0.03917378 -0.5873358 0.706565 -0.03919702 -0.7065618 0.587336 -0.03920608 -0.8083931 0.4536412 -0.03918093 -0.8903228 0.3087794 -0.03916603 -0.950327 0.1563165 -0.03918594 -0.9869294 -0.9869312 0.03915292 0.1563138 -0.9503268 0.03919738 0.3087763 -0.89032 0.0392223 0.453643 -0.8083953 0.03918176 0.5873346 -0.7065668 0.03918403 0.7065607 -0.5873336 0.03919231 0.8083955 -0.4536412 0.03917694 0.890323 -0.3087785 0.03917306 0.950327 -0.1563172 0.03919821 0.9869288 0.03870826 -0.1560279 -0.9869939 0.03729104 -0.308234 -0.9505794 0.034967 -0.4529235 -0.8908634 0.03178924 -0.5865609 -0.8092811 0.02783131 -0.7058559 -0.7078086 0.02318584 -0.8078739 -0.5888993 0.01796281 -0.8900729 -0.4554642 0.01228934 -0.9504075 -0.3107645 0.006315946 -0.9873629 -0.1583502 0.00318551 -0.9969136 -0.07844245 0 -0.9992291 -0.0392602 0.1545217 -0.1558365 -0.9756219 0.1488347 -0.3078712 -0.9397146 0.1395108 -0.4524098 -0.8808304 0.1267707 -0.5859338 -0.8003817 0.1109218 -0.7051568 -0.7003216 0.09235233 -0.807155 -0.5830712 0.07150489 -0.8894204 -0.4514625 0.04889464 -0.9499002 -0.3087056 0.02506929 -0.9870755 -0.1582834 0.01227384 -0.9969173 -0.07749497 0.3052441 -0.1558133 -0.9394405 0.2940086 -0.3078693 -0.9048622 0.2755862 -0.4524124 -0.84816 0.2504175 -0.5859263 -0.770702 0.2191129 -0.7051486 -0.6743553 0.1824277 -0.8071526 -0.561449 0.1412505 -0.8894164 -0.4347261 0.09658521 -0.9498988 -0.2972601 0.0495221 -0.9870755 -0.1524125 0.0242455 -0.9969174 -0.07461881 0.4484466 -0.1558291 -0.880121 0.4319394 -0.307876 -0.8477268 0.4048689 -0.4524334 -0.7945975 0.3678945 -0.5859412 -0.7220295 0.3219053 -0.7051524 -0.6317729 0.2680132 -0.8071475 -0.5260058 0.2075201 -0.8894155 -0.4072783 0.1418982 -0.9498999 -0.2784875 0.07275491 -0.9870755 -0.1427896 0.03561985 -0.9969173 -0.06990808 0.5806055 -0.1558402 -0.7991315 0.5592426 -0.3078397 -0.7697288 0.5241986 -0.4523971 -0.7214934 0.4763179 -0.5859319 -0.6555952 0.4167665 -0.7051625 -0.5736303 0.3469902 -0.8071589 -0.4775903 0.2686742 -0.8894188 -0.3697952 0.1837172 -0.9498987 -0.252865 0.09419548 -0.9870757 -0.1296494 0.04611712 -0.9969173 -0.06347507 0.6984653 -0.1558597 -0.6984655 0.67276 -0.3078727 -0.6727618 0.6306035 -0.4524123 -0.6306048 0.5730049 -0.5859435 -0.5730058 0.5013719 -0.7051621 -0.5013707 0.4174302 -0.8071587 -0.4174288 0.3232161 -0.8894172 -0.3232159 0.2210171 -0.9498963 -0.2210171 0.113321 -0.9870749 -0.1133207 0.05547952 -0.9969174 -0.05547869 0.7991344 -0.1558136 -0.5806086 0.7697214 -0.3078758 -0.5592331 0.7214902 -0.4524154 -0.5241874 0.6556082 -0.5859096 -0.4763274 0.5736469 -0.7051413 -0.4167796 0.4775945 -0.807156 -0.346991 0.3697909 -0.8894224 -0.2686681 0.2528584 -0.9499017 -0.1837104 0.1296489 -0.9870758 -0.09419494 0.06347459 -0.9969174 -0.04611712 0.8801241 -0.1558197 -0.448444 0.8477336 -0.3078595 -0.4319378 0.7946214 -0.4523848 -0.4048765 0.7220422 -0.5859228 -0.3678988 0.6317684 -0.7051584 -0.3219015 0.5260071 -0.8071473 -0.2680111 0.4072793 -0.8894157 -0.2075176 0.2784833 -0.9499016 -0.1418946 0.1427877 -0.9870758 -0.0727542 0.06991034 -0.9969172 -0.0356208 0.9394379 -0.155833 -0.3052419 0.9048547 -0.3078991 -0.2940006 0.8481637 -0.4524071 -0.2755838 0.7707096 -0.5859162 -0.250418 0.6743531 -0.7051515 -0.2191105 0.5614445 -0.8071569 -0.1824223 0.4347301 -0.8894143 -0.1412512 0.2972675 -0.9498963 -0.09658807 0.1524096 -0.9870761 -0.04952061 0.07462173 -0.9969171 -0.02424663 0.9756139 -0.1558896 -0.154519 0.9397097 -0.3078849 -0.1488374 0.8808212 -0.4524281 -0.1395098 0.800377 -0.5859413 -0.1267669 0.7003275 -0.705151 -0.1109213 0.5830772 -0.8071509 -0.09234976 0.4514696 -0.8894169 -0.07150447 0.3087009 -0.9499017 -0.04889267 0.1582764 -0.9870766 -0.02506858 0.07749164 -0.9969176 -0.01227295 0.9870004 -0.1559867 -0.03870928 0.9505826 -0.3082242 -0.03729313 0.8908652 -0.4529201 -0.03496766 0.809297 -0.586539 -0.03178894 0.7078144 -0.7058501 -0.02783024 0.5888913 -0.8078796 -0.02318388 0.4554649 -0.8900726 -0.01796311 0.3107582 -0.9504096 -0.0122891 0.1583389 -0.9873647 -0.006303429 0.0784555 -0.9969126 -0.003162264 0.07846051 -0.9969123 0.003162324 0.1583389 -0.9873648 0.006303966 0.3107572 -0.9504099 0.01228982 0.455473 -0.8900685 0.01796239 0.588909 -0.8078669 0.023184 0.7078031 -0.7058613 0.02782982 0.8092542 -0.586598 0.0317884 0.8908405 -0.4529687 0.03496843 0.950577 -0.3082413 0.03729289 0.9869959 -0.1560151 0.03870731 0.9756166 -0.1558673 0.1545242 0.9397147 -0.3078691 0.1488384 0.8808435 -0.4523838 0.1395124 0.8004028 -0.5859048 0.1267716 0.7003315 -0.7051468 0.1109231 0.5830674 -0.8071582 0.09234774 0.451475 -0.8894138 0.07150858 0.3087005 -0.9499019 0.04889398 0.158275 -0.9870768 0.02506804 0.07749187 -0.9969176 0.01227331 0.939443 -0.155798 0.3052439 0.9048726 -0.3078351 0.2940121 0.8481815 -0.4523698 0.2755901 0.7707085 -0.5859174 0.2504184 0.6743471 -0.7051568 0.2191118 0.5614393 -0.8071598 0.1824252 0.4347201 -0.8894194 0.1412497 0.2972629 -0.9498979 0.09658527 0.1524069 -0.9870765 0.04952096 0.07462197 -0.9969171 0.02424591 0.8801134 -0.1558881 0.448441 0.8477143 -0.3079317 0.4319247 0.7946042 -0.4524223 0.4048682 0.7220352 -0.5859335 0.3678954 0.6317507 -0.705177 0.3218954 0.5259946 -0.8071562 0.2680087 0.4072855 -0.8894121 0.2075202 0.2784892 -0.9498994 0.1418979 0.1427894 -0.9870755 0.07275509 0.0699101 -0.9969172 0.03562057 0.7991392 -0.1558011 0.5806055 0.7697166 -0.3078859 0.5592339 0.7214799 -0.4524329 0.5241863 0.6555945 -0.5859332 0.4763175 0.5736548 -0.7051326 0.4167833 0.4776093 -0.8071433 0.3470001 0.3697877 -0.8894235 0.2686691 0.2528584 -0.9499011 0.1837134 0.1296522 -0.9870749 0.09419894 0.06347358 -0.9969175 0.04611665 0.6984716 -0.1557839 0.6984761 0.6727631 -0.307844 0.6727719 0.6306118 -0.4523883 0.6306138 0.5730187 -0.5859169 0.5730193 0.5013774 -0.7051524 0.5013791 0.4174171 -0.8071695 0.4174214 0.3232044 -0.8894247 0.323207 0.221013 -0.9498984 0.2210118 0.1133159 -0.987076 0.1133166 0.05547684 -0.9969176 0.05547642 0.5805994 -0.1558588 0.7991322 0.5592362 -0.3078732 0.7697201 0.5241939 -0.4524161 0.7214849 0.4763185 -0.58593 0.6555964 0.416773 -0.7051494 0.5736416 0.3469925 -0.8071548 0.4775953 0.2686725 -0.8894178 0.3697989 0.1837154 -0.9498988 0.2528659 0.09419721 -0.9870752 0.129651 0.04611712 -0.9969173 0.06347489 0.4484441 -0.1558325 0.8801217 0.431934 -0.3078729 0.8477308 0.4048697 -0.4524073 0.7946119 0.3678963 -0.5859253 0.7220415 0.3219102 -0.705145 0.6317788 0.2680108 -0.8071539 0.5259972 0.2075203 -0.8894166 0.4072757 0.1419019 -0.9498976 0.2784934 0.07275515 -0.9870752 0.1427915 0.03561896 -0.9969175 0.0699073 0.3052484 -0.1558268 0.9394369 0.2940107 -0.3078652 0.9048629 0.2755863 -0.452426 0.8481526 0.2504186 -0.5859262 0.7707018 0.2191092 -0.7051491 0.6743561 0.1824218 -0.8071546 0.5614479 0.1412531 -0.8894133 0.4347319 0.09658282 -0.9498997 0.297258 0.04951912 -0.9870759 0.1524113 0.02424603 -0.9969172 0.0746212 0.1545252 -0.1558281 0.9756227 0.1488397 -0.307869 0.9397146 0.1395058 -0.4524294 0.8808212 0.1267619 -0.5859414 0.8003774 0.1109188 -0.7051538 0.7003251 0.09234857 -0.8071547 0.583072 0.07149869 -0.8894225 0.4514595 0.04889112 -0.9499004 0.3087053 0.02506989 -0.9870755 0.1582828 0.01227611 -0.9969172 0.0774948 0.03870576 -0.1560141 0.9869962 0.03728276 -0.3082482 0.9505751 0.0349664 -0.45292 0.8908653 0.03179162 -0.5865585 0.8092827 0.02782917 -0.7058574 0.7078071 0.02318638 -0.8078638 0.5889132 0.01796442 -0.8900715 0.4554671 0.01229071 -0.9504073 0.310765 0.006316244 -0.9873627 0.158351 0.00318408 -0.9969137 0.07844078 0 -0.9992291 0.03925901 -0.05313891 0.1455586 -0.9879216 -0.1054828 0.2890669 -0.9514798 -0.1552326 0.4254866 -0.8915516 -0.2011476 0.5513947 -0.8096317 -0.2420983 0.6637091 -0.7077279 -0.2773771 0.7593795 -0.5885616 -0.3059176 0.8365865 -0.454464 -0.3265195 0.8931353 -0.309345 -0.3390939 0.9276271 -0.1565999 -0.3720851 0.927368 -0.03925937 -0.2485298 0.9558286 -0.1569229 -0.1252763 0.9796331 -0.1569235 -0.03144907 0.9871615 -0.156599 -0.1206048 0.9430728 -0.3099487 -0.0302754 0.95047 -0.3093385 -0.1129333 0.8831534 -0.4552869 -0.02835375 0.8903161 -0.4544595 -0.1024768 0.8013865 -0.5893033 -0.02572876 0.808196 -0.5883513 -0.08948808 0.6998094 -0.7087021 -0.02247148 0.7061271 -0.7077285 -0.07429611 0.580968 -0.8105285 -0.01865726 0.5866406 -0.8096325 -0.0572707 0.4478263 -0.8922845 -0.01437795 0.4526917 -0.8915513 -0.03883117 0.3036593 -0.9519891 -0.009750247 0.3075575 -0.9514796 -0.01945269 0.1520927 -0.9881749 -0.004884719 0.1548802 -0.9879212 -0.2392542 0.9201576 -0.3099474 -0.2240534 0.8616925 -0.4552869 -0.2033118 0.7819114 -0.5893037 -0.1775379 0.6828048 -0.7087016 -0.1473881 0.5668521 -0.8105279 -0.1136096 0.4369449 -0.8922848 -0.07703632 0.2962809 -0.951989 -0.03858864 0.1483971 -0.9881747 -0.00630486 0.9873645 -0.1583397 -0.01229059 0.9504086 -0.3107613 -0.01796263 0.8900653 -0.4554793 -0.02318465 0.8078662 -0.5889098 -0.02782934 0.7058531 -0.7078114 -0.03178685 0.5865609 -0.8092811 -0.03497076 0.452935 -0.8908574 -0.03730159 0.308225 -0.9505819 -0.03871148 0.1560176 -0.9869954 -0.0250687 0.9870756 -0.1582824 -0.04952228 0.9870755 -0.1524127 -0.07275032 0.9870765 -0.1427843 -0.09420025 0.9870744 -0.1296554 -0.1133159 0.9870761 -0.1133157 -0.1296514 0.987075 -0.0941987 -0.1427899 0.9870753 -0.07275497 -0.1524037 0.987077 -0.04952001 -0.1582786 0.9870763 -0.02506852 -0.1583461 0.9873636 -0.006303727 -0.04889369 0.9499001 -0.308706 -0.09658461 0.9499 -0.2972566 -0.1418954 0.9499 -0.2784884 -0.1837209 0.9498964 -0.2528705 -0.2210137 0.9498979 -0.2210137 -0.2528644 0.9498987 -0.1837176 -0.2784881 0.9498999 -0.1418966 -0.2972484 0.9499026 -0.0965836 -0.3087111 0.9498984 -0.04889452 -0.3107656 0.9504072 -0.01228785 -0.07150173 0.889423 -0.4514579 -0.1412509 0.8894144 -0.4347301 -0.2075173 0.8894181 -0.4072738 -0.2686709 0.8894205 -0.3697935 -0.3232141 0.8894191 -0.3232124 -0.3698078 0.8894107 -0.2686834 -0.4072612 0.8894252 -0.2075119 -0.4347316 0.8894135 -0.1412519 -0.4514786 0.8894123 -0.07150501 -0.4554643 0.8900729 -0.0179606 -0.09234964 0.8071571 -0.5830686 -0.1824275 0.8071464 -0.5614578 -0.2680022 0.8071604 -0.5259915 -0.3469989 0.8071485 -0.4776017 -0.4174261 0.8071627 -0.4174256 -0.4775999 0.8071492 -0.3469994 -0.5259798 0.8071676 -0.2680037 -0.5614687 0.8071373 -0.1824352 -0.5830692 0.8071568 -0.09234911 -0.5888954 0.8078768 -0.02318388 -0.1109203 0.7051482 -0.7003304 -0.2191118 0.7051511 -0.674353 -0.3219 0.7051572 -0.6317703 -0.4167815 0.7051377 -0.5736497 -0.5013794 0.7051517 -0.5013779 -0.5736333 0.7051599 -0.4167665 -0.631739 0.7051894 -0.3218911 -0.6743697 0.7051334 -0.2191174 -0.700333 0.7051454 -0.110922 -0.7077817 0.7058829 -0.02783107 -0.1267675 0.5859218 -0.800391 -0.2504115 0.5859405 -0.7706932 -0.3678956 0.5859241 -0.7220429 -0.4763146 0.585938 -0.6555923 -0.5730145 0.5859258 -0.5730143 -0.6555977 0.5859318 -0.4763147 -0.7220251 0.5859475 -0.3678932 -0.7707043 0.5859242 -0.250415 -0.8003812 0.5859342 -0.1267721 -0.8092637 0.5865848 -0.03178918 -0.1395075 0.452411 -0.8808303 -0.2755821 0.452407 -0.8481643 -0.4048718 0.452398 -0.7946162 -0.524187 0.4524292 -0.7214817 -0.6306143 0.4523838 -0.6306145 -0.7214905 0.4524079 -0.5241934 -0.794622 0.4523766 -0.4048844 -0.8481489 0.4524345 -0.2755842 -0.880827 0.4524177 -0.1395069 -0.8908694 0.4529117 -0.03496712 -0.1488341 0.3078886 -0.939709 -0.2940032 0.3078636 -0.9048658 -0.4319406 0.3078624 -0.8477311 -0.559231 0.3078855 -0.769719 -0.6727649 0.3078694 -0.6727585 -0.7697139 0.3078956 -0.5592324 -0.8477314 0.3078565 -0.4319444 -0.9048681 0.3078498 -0.2940105 -0.9397079 0.3078935 -0.1488317 -0.9505906 0.3081994 -0.03729146 -0.1545168 0.1558539 -0.97562 -0.3052418 0.1558197 -0.9394401 -0.4484452 0.1558189 -0.8801235 -0.5806013 0.1558572 -0.7991312 -0.6984689 0.1558312 -0.6984682 -0.7991324 0.1558259 -0.5806081 -0.8801147 0.1558645 -0.4484466 -0.9394396 0.1558194 -0.3052436 -0.9756239 0.1558243 -0.1545218 -0.9869964 0.156013 -0.03870683 -0.158338 0.987365 0.006303548 -0.3107493 0.9504126 0.01228737 -0.4554554 0.8900774 0.01796066 -0.588903 0.8078712 0.02318388 -0.7078093 0.7058552 0.02783006 -0.8093039 0.5865294 0.0317915 -0.8908637 0.4529231 0.03496658 -0.9505733 0.3082529 0.03729099 -0.9869947 0.1560235 0.03870624 -0.1582811 0.9870759 0.02506816 -0.1524044 0.9870769 0.04951888 -0.1427887 0.9870756 0.0727545 -0.1296495 0.9870757 0.09419542 -0.1133162 0.9870759 0.1133165 -0.09419721 0.9870752 0.129652 -0.07275539 0.9870753 0.14279 -0.04952251 0.9870753 0.1524133 -0.02506947 0.9870755 0.1582831 -0.006303846 0.9873644 0.1583409 -0.3087052 0.9499005 0.04889267 -0.2972496 0.9499025 0.09658175 -0.2784981 0.9498962 0.1419016 -0.2528588 0.9499011 0.1837129 -0.2210094 0.9498999 0.2210099 -0.1837149 0.9499 0.2528613 -0.1418983 0.949899 0.2784903 -0.09658437 0.9499007 0.2972543 -0.048895 0.9499002 0.3087055 -0.01228922 0.9504084 0.3107618 -0.4514698 0.8894168 0.07150417 -0.4347183 0.8894209 0.1412464 -0.4072977 0.8894043 0.2075296 -0.3697892 0.8894229 0.2686687 -0.3232156 0.8894174 0.3232161 -0.2686734 0.8894192 0.3697946 -0.2075178 0.8894179 0.4072742 -0.1412491 0.88942 0.4347194 -0.07150489 0.8894202 0.4514629 -0.01796239 0.8900704 0.4554691 -0.5830767 0.8071513 0.09235024 -0.5614385 0.8071612 0.1824215 -0.5260235 0.8071327 0.2680227 -0.4775897 0.8071583 0.3469921 -0.4174253 0.8071646 0.4174224 -0.3469927 0.8071557 0.4775937 -0.2680084 0.8071552 0.5259962 -0.1824266 0.8071514 0.561451 -0.09235233 0.8071535 0.5830731 -0.02318441 0.8078707 0.5889036 -0.7003222 0.7051563 0.110921 -0.6743437 0.7051613 0.219108 -0.6317767 0.7051486 0.3219064 -0.5736302 0.7051633 0.4167652 -0.5013741 0.7051616 0.5013692 -0.4167778 0.7051431 0.5736459 -0.3219062 0.7051519 0.6317731 -0.2191098 0.7051573 0.6743472 -0.1109208 0.7051509 0.7003277 -0.0278303 0.7058562 0.7078083 -0.8003711 0.5859493 0.1267665 -0.770697 0.5859342 0.2504143 -0.7220227 0.5859528 0.3678894 -0.6556102 0.5859091 0.4763254 -0.5730147 0.5859221 0.5730178 -0.4763231 0.5859217 0.6556007 -0.3678973 0.5859313 0.7220361 -0.2504149 0.5859383 0.7706937 -0.1267683 0.5859306 0.8003844 -0.03178912 0.5865606 0.8092813 -0.8808361 0.4523987 0.1395105 -0.8481569 0.4524205 0.2755821 -0.7945998 0.452429 0.4048693 -0.7215085 0.4523652 0.5242053 -0.6306065 0.4524061 0.6306062 -0.5241945 0.4524085 0.7214892 -0.4048709 0.4524195 0.7946044 -0.2755854 0.4524073 0.8481629 -0.1395093 0.4524143 0.8808284 -0.03496778 0.4529318 0.8908593 -0.9397202 0.3078548 0.148833 -0.9048628 0.3078682 0.2940075 -0.8477216 0.3078921 0.4319381 -0.7697297 0.307842 0.5592401 -0.6727621 0.3078728 0.6727597 -0.5592331 0.307882 0.7697188 -0.4319396 0.3078836 0.8477241 -0.2940065 0.3078696 0.9048628 -0.1488359 0.3078718 0.9397143 -0.03729242 0.3082341 0.9505793 -0.9756238 0.1558253 0.1545212 -0.9394389 0.1558231 0.3052439 -0.8801143 0.1558799 0.4484421 -0.7991368 0.1558154 0.5806049 -0.6984675 0.1558412 0.6984674 -0.5806038 0.1558617 0.7991285 -0.4484452 0.1558364 0.8801205 -0.3052413 0.155824 0.9394396 -0.1545235 0.1558437 0.9756205 -0.03870731 0.156017 0.9869958 -0.3720936 0.9273647 0.03926038 -0.3390899 0.9276285 0.1566004 -0.3265261 0.893133 0.3093451 -0.3055479 0.8366081 0.4546728 -0.2770746 0.7596556 0.5883478 -0.2420919 0.6637135 0.7077259 -0.2011376 0.5513972 0.8096325 -0.1552236 0.4254839 0.8915544 -0.1054806 0.2890767 0.9514771 -0.0531423 0.1455609 0.9879211 -0.03144836 0.9871608 0.1566035 -0.03027617 0.9504682 0.3093439 -0.02835458 0.8903185 0.4544547 -0.02573144 0.808196 0.5883514 -0.02247148 0.7061277 0.7077279 -0.01865607 0.5866382 0.8096343 -0.01438039 0.4526841 0.8915551 -0.009750545 0.3075642 0.9514774 -0.004882872 0.1548793 0.9879214 -0.1252745 0.9796327 0.1569269 -0.2485283 0.9558285 0.1569256 -0.2392528 0.9201571 0.3099503 -0.2240504 0.8616964 0.455281 -0.2033069 0.7819139 0.5893021 -0.177538 0.6828068 0.7086997 -0.1473878 0.5668511 0.8105286 -0.1136096 0.4369395 0.8922873 -0.07703846 0.2962888 0.9519864 -0.03858488 0.1483976 0.9881749 -0.1206004 0.9430724 0.3099516 -0.1129374 0.8831568 0.4552794 -0.1024809 0.801387 0.5893018 -0.08949106 0.6998106 0.7087006 -0.07429337 0.5809671 0.8105294 -0.05726712 0.4478214 0.8922872 -0.03883266 0.303668 0.9519863 -0.01944947 0.1520931 0.9881748</float_array>
          <technique_common>
            <accessor source="#铲斗-mesh-normals-array" count="857" stride="3">
              <param name="X" type="float"/>
              <param name="Y" type="float"/>
              <param name="Z" type="float"/>
            </accessor>
          </technique_common>
        </source>
        <vertices id="铲斗-mesh-vertices">
          <input semantic="POSITION" source="#铲斗-mesh-positions"/>
        </vertices>
        <triangles count="1704">
          <input semantic="VERTEX" source="#铲斗-mesh-vertices" offset="0"/>
          <input semantic="NORMAL" source="#铲斗-mesh-normals" offset="1"/>
          <p>0 0 1 1 2 2 3 3 4 4 5 5 5 5 4 4 6 6 7 7 8 8 9 9 9 9 8 8 10 10 9 9 10 10 5 5 5 5 10 10 11 11 5 5 11 11 3 3 4 4 12 12 6 6 6 6 12 12 13 13 6 6 13 13 14 14 15 15 16 16 2 2 2 2 16 16 17 17 2 2 17 17 0 0 18 18 19 19 20 20 20 20 21 21 18 18 18 18 21 21 22 22 18 18 22 22 23 23 23 23 22 22 14 14 23 23 14 14 24 24 24 24 14 14 13 13 25 25 26 26 2 2 2 2 26 26 27 27 2 2 27 27 15 15 7 7 9 9 2 2 2 2 9 9 28 28 2 2 28 28 25 25 29 29 30 30 31 31 31 31 30 30 32 32 33 33 32 32 34 34 34 34 35 35 33 33 33 33 35 35 36 36 33 33 36 36 37 37 33 33 38 38 32 32 32 32 38 38 39 39 32 32 39 39 40 40 40 40 41 41 32 32 32 32 41 41 42 42 32 32 42 42 31 31 31 31 42 42 43 43 31 31 43 43 44 44 44 44 45 45 31 31 31 31 45 45 46 46 31 31 46 46 47 47 47 47 46 46 48 48 46 46 49 49 48 48 48 48 49 49 50 50 48 48 50 50 51 51 51 51 50 50 52 52 53 53 54 54 55 55 55 55 54 54 56 56 57 57 58 58 59 59 59 59 58 58 60 60 59 59 60 60 61 61 62 62 63 63 56 56 56 56 63 63 64 64 56 56 64 64 55 55 65 65 66 66 62 62 62 62 66 66 67 67 62 62 67 67 63 63 68 68 69 69 70 70 70 70 69 69 71 71 70 70 71 71 72 72 72 72 71 71 73 73 72 72 73 73 65 65 65 65 73 73 74 74 65 65 74 74 66 66 61 61 75 75 59 59 59 59 75 75 76 76 59 59 76 76 77 77 53 53 78 78 54 54 54 54 78 78 79 79 54 54 79 79 80 80 80 80 79 79 59 59 80 80 59 59 81 81 81 81 59 59 77 77 82 82 83 83 84 84 85 85 86 86 87 87 87 87 86 86 88 88 84 84 83 83 86 86 86 86 83 83 89 89 86 86 89 89 88 88 90 90 91 91 92 92 93 93 94 94 84 84 93 93 84 84 95 95 96 96 97 97 92 92 97 97 98 98 92 92 92 92 98 98 99 99 92 92 99 99 90 90 94 94 100 100 84 84 84 84 100 100 101 101 84 84 101 101 82 82 102 102 103 103 104 104 104 104 103 103 105 105 104 104 105 105 106 106 107 107 104 104 108 108 108 108 104 104 109 109 85 85 110 110 86 86 86 86 110 110 111 111 86 86 111 111 112 112 113 113 114 114 115 115 115 115 116 116 86 86 86 86 116 116 117 117 86 86 117 117 118 118 106 106 119 119 104 104 104 104 119 119 120 120 104 104 120 120 121 121 109 109 104 104 122 122 122 122 104 104 121 121 122 122 121 121 92 92 92 92 121 121 123 123 92 92 123 123 96 96 124 124 125 125 84 84 84 84 125 125 126 126 84 84 126 126 95 95 127 127 128 128 129 129 129 129 128 128 130 130 129 129 130 130 131 131 131 131 132 132 129 129 129 129 132 132 133 133 129 129 133 133 134 134 107 107 135 135 104 104 104 104 135 135 136 136 104 104 136 136 84 84 84 84 136 136 137 137 84 84 137 137 124 124 113 113 115 115 138 138 114 114 139 139 115 115 115 115 139 139 140 140 115 115 140 140 141 141 91 91 142 142 92 92 92 92 142 142 143 143 92 92 143 143 141 141 141 141 143 143 144 144 141 141 144 144 115 115 118 118 145 145 86 86 86 86 145 145 146 146 86 86 146 146 129 129 129 129 146 146 147 147 129 129 147 147 127 127 134 134 148 148 129 129 129 129 148 148 149 149 129 129 149 149 150 150 150 150 151 151 129 129 129 129 151 151 152 152 129 129 152 152 104 104 104 104 152 152 153 153 104 104 153 153 102 102 112 112 154 154 86 86 86 86 154 154 155 155 86 86 155 155 156 156 156 156 157 157 86 86 86 86 157 157 158 158 86 86 158 158 115 115 115 115 158 158 159 159 115 115 159 159 138 138 160 160 161 161 162 162 162 162 161 161 163 163 162 162 163 163 164 164 71 71 69 69 162 162 162 162 69 69 165 165 162 162 165 165 166 166 166 166 167 167 162 162 162 162 167 167 168 168 162 162 168 168 160 160 169 169 170 170 18 18 18 18 170 170 171 171 18 18 171 171 19 19 19 19 171 171 172 172 173 173 174 174 175 175 172 172 176 176 19 19 19 19 176 176 173 173 19 19 173 173 177 177 177 177 173 173 175 175 164 164 163 163 178 178 179 179 180 180 181 181 182 182 183 183 184 184 181 181 180 180 185 185 185 185 180 180 186 186 185 185 186 186 187 187 187 187 186 186 188 188 187 187 188 188 189 189 184 184 183 183 170 170 189 189 188 188 190 190 190 190 188 188 191 191 190 190 191 191 129 129 178 178 192 192 164 164 164 164 192 192 193 193 164 164 193 193 194 194 194 194 193 193 195 195 194 194 195 195 196 196 196 196 195 195 197 197 196 196 197 197 198 198 198 198 197 197 179 179 198 198 179 179 199 199 199 199 179 179 181 181 200 200 171 171 201 201 201 201 171 171 170 170 201 201 170 170 202 202 202 202 170 170 183 183 191 191 203 203 129 129 129 129 203 203 204 204 129 129 204 204 86 86 204 204 205 205 86 86 86 86 205 205 206 206 86 86 206 206 207 207 207 207 206 206 208 208 207 207 208 208 209 209 209 209 208 208 210 210 209 209 210 210 211 211 211 211 210 210 212 212 184 184 213 213 182 182 182 182 213 213 214 214 182 182 214 214 215 215 215 215 214 214 216 216 215 215 216 216 217 217 217 217 216 216 218 218 217 217 218 218 212 212 212 212 218 218 219 219 212 212 219 219 211 211 220 220 221 220 1 1 222 220 223 220 220 220 224 220 225 220 59 59 222 220 220 220 226 220 227 220 228 220 229 220 224 220 230 220 225 220 225 220 230 220 231 220 225 220 231 220 232 220 233 220 1 1 234 220 234 220 1 1 225 220 234 220 225 220 235 220 235 220 225 220 232 220 59 59 236 220 224 220 224 220 236 220 227 220 224 220 227 220 237 220 237 220 227 220 229 220 233 220 238 220 1 1 1 1 238 220 239 220 1 1 239 220 240 220 240 220 241 220 1 1 1 1 241 220 242 220 1 1 242 220 220 220 220 220 242 220 243 220 220 220 243 220 226 220 205 205 244 221 245 222 245 222 246 223 205 205 205 205 246 223 247 224 205 205 247 224 248 225 248 225 247 224 249 226 248 225 249 226 250 227 250 227 251 228 248 225 248 225 251 228 252 229 248 225 252 229 253 230 254 231 255 232 256 233 257 234 258 235 205 205 253 230 259 236 248 225 248 225 259 236 260 237 248 225 260 237 261 238 262 239 263 240 248 225 248 225 263 240 264 241 248 225 264 241 265 242 265 242 266 243 248 225 248 225 266 243 267 244 248 225 267 244 256 233 256 233 267 244 268 245 256 233 268 245 254 231 255 232 269 246 256 233 256 233 269 246 270 247 256 233 270 247 271 248 272 249 273 250 258 235 258 235 273 250 274 251 275 252 276 253 205 205 205 205 276 253 277 254 205 205 277 254 257 234 262 239 248 225 278 255 278 255 248 225 261 238 278 255 261 238 279 256 279 256 261 238 280 257 279 256 280 257 258 235 258 235 280 257 281 258 258 235 281 258 272 249 274 251 282 259 258 235 258 235 282 259 283 260 258 235 283 260 284 261 284 261 285 262 258 235 258 235 285 262 286 263 258 235 286 263 287 264 288 265 289 266 205 205 205 205 289 266 290 267 204 204 291 268 292 269 290 267 293 270 205 205 205 205 293 270 294 271 205 205 294 271 244 221 295 272 296 273 204 204 292 269 297 274 204 204 204 204 297 274 298 275 204 204 298 275 299 276 299 276 300 277 204 204 204 204 300 277 301 278 204 204 301 278 205 205 205 205 301 278 302 279 205 205 302 279 275 252 287 264 303 280 258 235 258 235 303 280 304 281 258 235 304 281 305 282 271 248 306 283 256 233 256 233 306 283 307 284 256 233 307 284 204 204 204 204 307 284 308 285 204 204 308 285 295 272 296 273 309 286 204 204 204 204 309 286 310 287 204 204 310 287 311 288 311 288 312 289 204 204 204 204 312 289 313 290 204 204 313 290 291 268 314 291 315 292 205 205 205 205 315 292 316 293 205 205 316 293 288 265 305 282 317 294 258 235 258 235 317 294 318 295 258 235 318 295 205 205 205 205 318 295 319 296 205 205 319 296 314 291 68 68 70 70 320 297 320 297 321 298 68 68 68 68 321 298 322 299 68 68 322 299 323 300 324 301 192 192 323 300 323 300 192 192 178 178 323 300 178 178 68 68 68 68 178 178 325 302 326 303 327 304 328 305 325 302 329 306 68 68 68 68 329 306 326 303 68 68 326 303 330 307 330 307 326 303 328 305 331 308 332 309 20 20 332 309 333 310 20 20 20 20 333 310 334 311 20 20 334 311 21 21 200 200 201 201 335 312 336 313 337 314 338 315 335 312 331 308 200 200 200 200 331 308 20 20 200 200 20 20 339 316 339 316 20 20 340 317 340 317 20 20 338 315 338 315 20 20 341 318 338 315 341 318 336 313 171 171 200 200 339 316 171 171 339 316 172 172 172 172 339 316 340 317 172 172 340 317 176 176 176 176 340 317 338 315 176 176 338 315 173 173 173 173 338 315 337 314 173 173 337 314 174 174 174 174 337 314 336 313 174 174 336 313 175 175 175 175 336 313 341 318 175 175 341 318 177 177 177 177 341 318 20 20 177 177 20 20 19 19 178 178 163 163 161 161 178 178 161 161 325 302 325 302 161 161 160 160 325 302 160 160 329 306 329 306 160 160 168 168 329 306 168 168 326 303 326 303 168 168 167 167 326 303 167 167 327 304 327 304 167 167 166 166 327 304 166 166 328 305 328 305 166 166 165 165 328 305 165 165 330 307 330 307 165 165 69 69 330 307 69 69 68 68 342 319 343 320 344 321 344 321 343 320 345 322 30 30 29 29 346 323 30 30 346 323 347 324 347 324 346 323 348 325 347 324 348 325 349 326 349 326 348 325 344 321 349 326 344 321 345 322 335 312 201 201 350 327 350 327 201 201 202 202 350 327 202 202 351 328 351 328 202 202 183 183 351 328 183 183 352 329 352 329 183 183 182 182 352 329 182 182 353 330 353 330 182 182 215 215 353 330 215 215 354 331 354 331 215 215 217 217 354 331 217 217 355 332 355 332 217 217 212 212 355 332 212 212 356 333 356 333 212 212 210 210 356 333 210 210 357 334 357 334 210 210 208 208 357 334 208 208 358 335 358 335 208 208 206 206 358 335 206 206 248 225 248 225 206 206 205 205 170 170 169 169 359 336 170 170 359 336 184 184 184 184 359 336 360 337 184 184 360 337 213 213 213 213 360 337 361 338 213 213 361 338 214 214 214 214 361 338 362 339 214 214 362 339 216 216 216 216 362 339 363 340 216 216 363 340 218 218 218 218 363 340 364 341 218 218 364 341 219 219 219 219 364 341 365 342 219 219 365 342 211 211 211 211 365 342 366 343 211 211 366 343 209 209 209 209 366 343 367 344 209 209 367 344 207 207 207 207 367 344 84 84 207 207 84 84 86 86 129 129 104 104 368 345 129 129 368 345 190 190 190 190 368 345 369 346 190 190 369 346 189 189 189 189 369 346 370 347 189 189 370 347 187 187 187 187 370 347 371 348 187 187 371 348 185 185 185 185 371 348 372 349 185 185 372 349 181 181 181 181 372 349 373 350 181 181 373 350 199 199 199 199 373 350 374 351 199 199 374 351 198 198 198 198 374 351 375 352 198 198 375 352 196 196 196 196 375 352 376 353 196 196 376 353 194 194 194 194 376 353 162 162 194 194 162 162 164 164 256 233 204 204 377 354 377 354 204 204 203 203 377 354 203 203 378 355 378 355 203 203 191 191 378 355 191 191 379 356 379 356 191 191 188 188 379 356 188 188 380 357 380 357 188 188 186 186 380 357 186 186 381 358 381 358 186 186 180 180 381 358 180 180 382 359 382 359 180 180 179 179 382 359 179 179 383 360 383 360 179 179 197 197 383 360 197 197 384 361 384 361 197 197 195 195 384 361 195 195 385 362 385 362 195 195 193 193 385 362 193 193 324 301 324 301 193 193 192 192 71 71 162 162 386 363 71 71 386 363 73 73 73 73 386 363 387 364 73 73 387 364 74 74 74 74 387 364 388 365 74 74 388 365 66 66 66 66 388 365 389 366 66 66 389 366 67 67 67 67 389 366 390 367 67 67 390 367 63 63 63 63 390 367 391 368 63 63 391 368 64 64 64 64 391 368 392 369 64 64 392 369 55 55 55 55 392 369 393 370 55 55 393 370 53 53 53 53 393 370 394 371 53 53 394 371 78 78 78 78 394 371 79 79 79 79 394 371 395 372 79 79 395 372 396 373 162 162 376 353 386 363 386 363 376 353 397 374 386 363 397 374 387 364 387 364 397 374 398 375 387 364 398 375 388 365 388 365 398 375 399 376 388 365 399 376 389 366 389 366 399 376 400 377 389 366 400 377 390 367 390 367 400 377 401 378 390 367 401 378 391 368 391 368 401 378 402 379 391 368 402 379 392 369 392 369 402 379 403 380 392 369 403 380 393 370 393 370 403 380 404 381 393 370 404 381 394 371 394 371 404 381 405 382 394 371 405 382 395 372 395 372 405 382 406 383 376 353 375 352 397 374 397 374 375 352 407 384 397 374 407 384 398 375 398 375 407 384 408 385 398 375 408 385 399 376 399 376 408 385 409 386 399 376 409 386 400 377 400 377 409 386 410 387 400 377 410 387 401 378 401 378 410 387 411 388 401 378 411 388 402 379 402 379 411 388 412 389 402 379 412 389 403 380 403 380 412 389 413 390 403 380 413 390 404 381 404 381 413 390 414 391 404 381 414 391 405 382 405 382 414 391 415 392 405 382 415 392 406 383 406 383 415 392 416 393 375 352 374 351 407 384 407 384 374 351 417 394 407 384 417 394 408 385 408 385 417 394 418 395 408 385 418 395 409 386 409 386 418 395 419 396 409 386 419 396 410 387 410 387 419 396 420 397 410 387 420 397 411 388 411 388 420 397 421 398 411 388 421 398 412 389 412 389 421 398 422 399 412 389 422 399 413 390 413 390 422 399 423 400 413 390 423 400 414 391 414 391 423 400 424 401 414 391 424 401 415 392 415 392 424 401 425 402 415 392 425 402 416 393 416 393 425 402 426 403 374 351 373 350 417 394 417 394 373 350 427 404 417 394 427 404 418 395 418 395 427 404 428 405 418 395 428 405 419 396 419 396 428 405 429 406 419 396 429 406 420 397 420 397 429 406 430 407 420 397 430 407 421 398 421 398 430 407 431 408 421 398 431 408 422 399 422 399 431 408 432 409 422 399 432 409 423 400 423 400 432 409 433 410 423 400 433 410 424 401 424 401 433 410 434 411 424 401 434 411 425 402 425 402 434 411 435 412 425 402 435 412 426 403 426 403 435 412 436 413 373 350 372 349 427 404 427 404 372 349 437 414 427 404 437 414 428 405 428 405 437 414 438 415 428 405 438 415 429 406 429 406 438 415 439 416 429 406 439 416 430 407 430 407 439 416 440 417 430 407 440 417 431 408 431 408 440 417 441 418 431 408 441 418 432 409 432 409 441 418 442 419 432 409 442 419 433 410 433 410 442 419 443 420 433 410 443 420 434 411 434 411 443 420 444 421 434 411 444 421 435 412 435 412 444 421 445 422 435 412 445 422 436 413 436 413 445 422 446 423 372 349 371 348 437 414 437 414 371 348 447 424 437 414 447 424 438 415 438 415 447 424 448 425 438 415 448 425 439 416 439 416 448 425 449 426 439 416 449 426 440 417 440 417 449 426 450 427 440 417 450 427 441 418 441 418 450 427 451 428 441 418 451 428 442 419 442 419 451 428 452 429 442 419 452 429 443 420 443 420 452 429 453 430 443 420 453 430 444 421 444 421 453 430 454 431 444 421 454 431 445 422 445 422 454 431 455 432 445 422 455 432 446 423 446 423 455 432 456 433 371 348 370 347 447 424 447 424 370 347 457 434 447 424 457 434 448 425 448 425 457 434 458 435 448 425 458 435 449 426 449 426 458 435 459 436 449 426 459 436 450 427 450 427 459 436 460 437 450 427 460 437 451 428 451 428 460 437 461 438 451 428 461 438 452 429 452 429 461 438 462 439 452 429 462 439 453 430 453 430 462 439 463 440 453 430 463 440 454 431 454 431 463 440 464 441 454 431 464 441 455 432 455 432 464 441 465 442 455 432 465 442 456 433 456 433 465 442 466 443 370 347 369 346 457 434 457 434 369 346 467 444 457 434 467 444 458 435 458 435 467 444 468 445 458 435 468 445 459 436 459 436 468 445 469 446 459 436 469 446 460 437 460 437 469 446 470 447 460 437 470 447 461 438 461 438 470 447 471 448 461 438 471 448 462 439 462 439 471 448 472 449 462 439 472 449 463 440 463 440 472 449 473 450 463 440 473 450 464 441 464 441 473 450 474 451 464 441 474 451 465 442 465 442 474 451 475 452 465 442 475 452 466 443 466 443 475 452 476 453 369 346 368 345 467 444 467 444 368 345 477 454 467 444 477 454 468 445 468 445 477 454 478 455 468 445 478 455 469 446 469 446 478 455 479 456 469 446 479 456 470 447 470 447 479 456 480 457 470 447 480 457 471 448 471 448 480 457 481 458 471 448 481 458 472 449 472 449 481 458 482 459 472 449 482 459 473 450 473 450 482 459 483 460 473 450 483 460 474 451 474 451 483 460 484 461 474 451 484 461 475 452 475 452 484 461 485 462 475 452 485 462 476 453 476 453 485 462 486 463 368 345 104 104 477 454 477 454 104 104 487 464 477 454 487 464 478 455 478 455 487 464 488 465 478 455 488 465 479 456 479 456 488 465 489 466 479 456 489 466 480 457 480 457 489 466 490 467 480 457 490 467 481 458 481 458 490 467 491 468 481 458 491 468 482 459 482 459 491 468 492 469 482 459 492 469 483 460 483 460 492 469 493 470 483 460 493 470 484 461 484 461 493 470 494 471 484 461 494 471 485 462 485 462 494 471 495 472 485 462 495 472 486 463 486 463 495 472 496 473 497 474 496 473 495 472 497 474 495 472 498 475 498 475 495 472 494 471 498 475 494 471 499 476 499 476 494 471 493 470 499 476 493 470 500 477 500 477 493 470 492 469 500 477 492 469 501 478 501 478 492 469 491 468 501 478 491 468 502 479 502 479 491 468 490 467 502 479 490 467 503 480 503 480 490 467 489 466 503 480 489 466 504 481 504 481 489 466 488 465 504 481 488 465 505 482 505 482 488 465 487 464 505 482 487 464 506 483 506 483 487 464 104 104 506 483 104 104 84 84 84 84 367 344 506 483 506 483 367 344 507 484 506 483 507 484 505 482 505 482 507 484 508 485 505 482 508 485 504 481 504 481 508 485 509 486 504 481 509 486 503 480 503 480 509 486 510 487 503 480 510 487 502 479 502 479 510 487 511 488 502 479 511 488 501 478 501 478 511 488 512 489 501 478 512 489 500 477 500 477 512 489 513 490 500 477 513 490 499 476 499 476 513 490 514 491 499 476 514 491 498 475 498 475 514 491 515 492 498 475 515 492 497 474 497 474 515 492 516 493 367 344 366 343 507 484 507 484 366 343 517 494 507 484 517 494 508 485 508 485 517 494 518 495 508 485 518 495 509 486 509 486 518 495 519 496 509 486 519 496 510 487 510 487 519 496 520 497 510 487 520 497 511 488 511 488 520 497 521 498 511 488 521 498 512 489 512 489 521 498 522 499 512 489 522 499 513 490 513 490 522 499 523 500 513 490 523 500 514 491 514 491 523 500 524 501 514 491 524 501 515 492 515 492 524 501 525 502 515 492 525 502 516 493 516 493 525 502 526 503 366 343 365 342 517 494 517 494 365 342 527 504 517 494 527 504 518 495 518 495 527 504 528 505 518 495 528 505 519 496 519 496 528 505 529 506 519 496 529 506 520 497 520 497 529 506 530 507 520 497 530 507 521 498 521 498 530 507 531 508 521 498 531 508 522 499 522 499 531 508 532 509 522 499 532 509 523 500 523 500 532 509 533 510 523 500 533 510 524 501 524 501 533 510 534 511 524 501 534 511 525 502 525 502 534 511 535 512 525 502 535 512 526 503 526 503 535 512 536 513 365 342 364 341 527 504 527 504 364 341 537 514 527 504 537 514 528 505 528 505 537 514 538 515 528 505 538 515 529 506 529 506 538 515 539 516 529 506 539 516 530 507 530 507 539 516 540 517 530 507 540 517 531 508 531 508 540 517 541 518 531 508 541 518 532 509 532 509 541 518 542 519 532 509 542 519 533 510 533 510 542 519 543 520 533 510 543 520 534 511 534 511 543 520 544 521 534 511 544 521 535 512 535 512 544 521 545 522 535 512 545 522 536 513 536 513 545 522 546 523 364 341 363 340 537 514 537 514 363 340 547 524 537 514 547 524 538 515 538 515 547 524 548 525 538 515 548 525 539 516 539 516 548 525 549 526 539 516 549 526 540 517 540 517 549 526 550 527 540 517 550 527 541 518 541 518 550 527 551 528 541 518 551 528 542 519 542 519 551 528 552 529 542 519 552 529 543 520 543 520 552 529 553 530 543 520 553 530 544 521 544 521 553 530 554 531 544 521 554 531 545 522 545 522 554 531 555 532 545 522 555 532 546 523 546 523 555 532 556 533 363 340 362 339 547 524 547 524 362 339 557 534 547 524 557 534 548 525 548 525 557 534 558 535 548 525 558 535 549 526 549 526 558 535 559 536 549 526 559 536 550 527 550 527 559 536 560 537 550 527 560 537 551 528 551 528 560 537 561 538 551 528 561 538 552 529 552 529 561 538 562 539 552 529 562 539 553 530 553 530 562 539 563 540 553 530 563 540 554 531 554 531 563 540 564 541 554 531 564 541 555 532 555 532 564 541 565 542 555 532 565 542 556 533 556 533 565 542 566 543 362 339 361 338 557 534 557 534 361 338 567 544 557 534 567 544 558 535 558 535 567 544 568 545 558 535 568 545 559 536 559 536 568 545 569 546 559 536 569 546 560 537 560 537 569 546 570 547 560 537 570 547 561 538 561 538 570 547 571 548 561 538 571 548 562 539 562 539 571 548 572 549 562 539 572 549 563 540 563 540 572 549 573 550 563 540 573 550 564 541 564 541 573 550 574 551 564 541 574 551 565 542 565 542 574 551 575 552 565 542 575 552 566 543 566 543 575 552 576 553 361 338 360 337 567 544 567 544 360 337 577 554 567 544 577 554 568 545 568 545 577 554 578 555 568 545 578 555 569 546 569 546 578 555 579 556 569 546 579 556 570 547 570 547 579 556 580 557 570 547 580 557 571 548 571 548 580 557 581 558 571 548 581 558 572 549 572 549 581 558 582 559 572 549 582 559 573 550 573 550 582 559 583 560 573 550 583 560 574 551 574 551 583 560 584 561 574 551 584 561 575 552 575 552 584 561 585 562 575 552 585 562 576 553 576 553 585 562 586 563 360 337 359 336 577 554 577 554 359 336 587 564 577 554 587 564 578 555 578 555 587 564 588 565 578 555 588 565 579 556 579 556 588 565 589 566 579 556 589 566 580 557 580 557 589 566 590 567 580 557 590 567 581 558 581 558 590 567 591 568 581 558 591 568 582 559 582 559 591 568 592 569 582 559 592 569 583 560 583 560 592 569 593 570 583 560 593 570 584 561 584 561 593 570 594 571 584 561 594 571 585 562 585 562 594 571 595 572 585 562 595 572 586 563 586 563 595 572 596 573 359 336 169 169 587 564 587 564 169 169 597 574 587 564 597 574 588 565 588 565 597 574 598 575 588 565 598 575 589 566 589 566 598 575 599 576 589 566 599 576 590 567 590 567 599 576 600 577 590 567 600 577 591 568 591 568 600 577 601 578 591 568 601 578 592 569 592 569 601 578 602 579 592 569 602 579 593 570 593 570 602 579 603 580 593 570 603 580 594 571 594 571 603 580 604 581 594 571 604 581 595 572 595 572 604 581 605 582 595 572 605 582 596 573 596 573 605 582 606 583 607 584 606 583 7 7 7 7 606 583 605 582 7 7 605 582 8 8 8 8 605 582 604 581 8 8 604 581 10 10 10 10 604 581 603 580 10 10 603 580 11 11 11 11 603 580 602 579 11 11 602 579 3 3 3 3 602 579 601 578 3 3 601 578 4 4 4 4 601 578 600 577 4 4 600 577 12 12 12 12 600 577 599 576 12 12 599 576 13 13 13 13 599 576 598 575 13 13 598 575 24 24 24 24 598 575 597 574 24 24 597 574 23 23 23 23 597 574 169 169 23 23 169 169 18 18 21 21 334 311 608 585 21 21 608 585 22 22 22 22 608 585 609 586 22 22 609 586 14 14 14 14 609 586 610 587 14 14 610 587 6 6 6 6 610 587 611 588 6 6 611 588 5 5 5 5 611 588 612 589 5 5 612 589 9 9 9 9 612 589 613 590 9 9 613 590 28 28 28 28 613 590 25 25 25 25 613 590 614 591 25 25 614 591 26 26 26 26 614 591 27 27 27 27 614 591 615 592 27 27 615 592 15 15 15 15 615 592 16 16 16 16 615 592 616 593 16 16 616 593 17 17 17 17 616 593 0 0 0 0 616 593 345 322 0 0 345 322 617 594 349 326 345 322 616 593 347 324 349 326 618 595 30 30 347 324 619 596 30 30 619 596 620 597 620 597 619 596 621 598 620 597 621 598 622 599 622 599 621 598 623 600 622 599 623 600 624 601 624 601 623 600 625 602 624 601 625 602 626 603 626 603 625 602 627 604 626 603 627 604 628 605 628 605 627 604 629 606 628 605 629 606 630 607 630 607 629 606 631 608 630 607 631 608 632 609 632 609 631 608 633 610 632 609 633 610 634 611 634 611 633 610 635 612 634 611 635 612 636 613 636 613 635 612 332 309 636 613 332 309 331 308 347 324 618 595 619 596 619 596 618 595 637 614 619 596 637 614 621 598 621 598 637 614 638 615 621 598 638 615 623 600 623 600 638 615 639 616 623 600 639 616 625 602 625 602 639 616 640 617 625 602 640 617 627 604 627 604 640 617 641 618 627 604 641 618 629 606 629 606 641 618 642 619 629 606 642 619 631 608 631 608 642 619 643 620 631 608 643 620 633 610 633 610 643 620 644 621 633 610 644 621 635 612 635 612 644 621 333 310 635 612 333 310 332 309 349 326 616 593 618 595 618 595 616 593 615 592 618 595 615 592 637 614 637 614 615 592 614 591 637 614 614 591 638 615 638 615 614 591 613 590 638 615 613 590 639 616 639 616 613 590 612 589 639 616 612 589 640 617 640 617 612 589 611 588 640 617 611 588 641 618 641 618 611 588 610 587 641 618 610 587 642 619 642 619 610 587 609 586 642 619 609 586 643 620 643 620 609 586 608 585 643 620 608 585 644 621 644 621 608 585 334 311 644 621 334 311 333 310 32 32 30 30 645 622 645 622 30 30 620 597 645 622 620 597 646 623 646 623 620 597 622 599 646 623 622 599 647 624 647 624 622 599 624 601 647 624 624 601 648 625 648 625 624 601 626 603 648 625 626 603 649 626 649 626 626 603 628 605 649 626 628 605 650 627 650 627 628 605 630 607 650 627 630 607 651 628 651 628 630 607 632 609 651 628 632 609 652 629 652 629 632 609 634 611 652 629 634 611 653 630 653 630 634 611 636 613 653 630 636 613 335 312 335 312 636 613 331 308 32 32 645 622 34 34 34 34 645 622 654 631 34 34 654 631 35 35 35 35 654 631 655 632 35 35 655 632 36 36 36 36 655 632 656 633 36 36 656 633 37 37 37 37 656 633 657 634 37 37 657 634 33 33 33 33 657 634 658 635 33 33 658 635 38 38 38 38 658 635 659 636 38 38 659 636 39 39 39 39 659 636 660 637 39 39 660 637 40 40 40 40 660 637 661 638 40 40 661 638 41 41 41 41 661 638 662 639 41 41 662 639 42 42 42 42 662 639 663 640 645 622 646 623 654 631 654 631 646 623 664 641 654 631 664 641 655 632 655 632 664 641 665 642 655 632 665 642 656 633 656 633 665 642 666 643 656 633 666 643 657 634 657 634 666 643 667 644 657 634 667 644 658 635 658 635 667 644 668 645 658 635 668 645 659 636 659 636 668 645 669 646 659 636 669 646 660 637 660 637 669 646 670 647 660 637 670 647 661 638 661 638 670 647 671 648 661 638 671 648 662 639 662 639 671 648 672 649 662 639 672 649 663 640 663 640 672 649 673 650 646 623 647 624 664 641 664 641 647 624 674 651 664 641 674 651 665 642 665 642 674 651 675 652 665 642 675 652 666 643 666 643 675 652 676 653 666 643 676 653 667 644 667 644 676 653 677 654 667 644 677 654 668 645 668 645 677 654 678 655 668 645 678 655 669 646 669 646 678 655 679 656 669 646 679 656 670 647 670 647 679 656 680 657 670 647 680 657 671 648 671 648 680 657 681 658 671 648 681 658 672 649 672 649 681 658 682 659 672 649 682 659 673 650 673 650 682 659 683 660 647 624 648 625 674 651 674 651 648 625 684 661 674 651 684 661 675 652 675 652 684 661 685 662 675 652 685 662 676 653 676 653 685 662 686 663 676 653 686 663 677 654 677 654 686 663 687 664 677 654 687 664 678 655 678 655 687 664 688 665 678 655 688 665 679 656 679 656 688 665 689 666 679 656 689 666 680 657 680 657 689 666 690 667 680 657 690 667 681 658 681 658 690 667 691 668 681 658 691 668 682 659 682 659 691 668 692 669 682 659 692 669 683 660 683 660 692 669 693 670 648 625 649 626 684 661 684 661 649 626 694 671 684 661 694 671 685 662 685 662 694 671 695 672 685 662 695 672 686 663 686 663 695 672 696 673 686 663 696 673 687 664 687 664 696 673 697 674 687 664 697 674 688 665 688 665 697 674 698 675 688 665 698 675 689 666 689 666 698 675 699 676 689 666 699 676 690 667 690 667 699 676 700 677 690 667 700 677 691 668 691 668 700 677 701 678 691 668 701 678 692 669 692 669 701 678 702 679 692 669 702 679 693 670 693 670 702 679 703 680 649 626 650 627 694 671 694 671 650 627 704 681 694 671 704 681 695 672 695 672 704 681 705 682 695 672 705 682 696 673 696 673 705 682 706 683 696 673 706 683 697 674 697 674 706 683 707 684 697 674 707 684 698 675 698 675 707 684 708 685 698 675 708 685 699 676 699 676 708 685 709 686 699 676 709 686 700 677 700 677 709 686 710 687 700 677 710 687 701 678 701 678 710 687 711 688 701 678 711 688 702 679 702 679 711 688 712 689 702 679 712 689 703 680 703 680 712 689 713 690 650 627 651 628 704 681 704 681 651 628 714 691 704 681 714 691 705 682 705 682 714 691 715 692 705 682 715 692 706 683 706 683 715 692 716 693 706 683 716 693 707 684 707 684 716 693 717 694 707 684 717 694 708 685 708 685 717 694 718 695 708 685 718 695 709 686 709 686 718 695 719 696 709 686 719 696 710 687 710 687 719 696 720 697 710 687 720 697 711 688 711 688 720 697 721 698 711 688 721 698 712 689 712 689 721 698 722 699 712 689 722 699 713 690 713 690 722 699 723 700 651 628 652 629 714 691 714 691 652 629 724 701 714 691 724 701 715 692 715 692 724 701 725 702 715 692 725 702 716 693 716 693 725 702 726 703 716 693 726 703 717 694 717 694 726 703 727 704 717 694 727 704 718 695 718 695 727 704 728 705 718 695 728 705 719 696 719 696 728 705 729 706 719 696 729 706 720 697 720 697 729 706 730 707 720 697 730 707 721 698 721 698 730 707 731 708 721 698 731 708 722 699 722 699 731 708 732 709 722 699 732 709 723 700 723 700 732 709 733 710 652 629 653 630 724 701 724 701 653 630 734 711 724 701 734 711 725 702 725 702 734 711 735 712 725 702 735 712 726 703 726 703 735 712 736 713 726 703 736 713 727 704 727 704 736 713 737 714 727 704 737 714 728 705 728 705 737 714 738 715 728 705 738 715 729 706 729 706 738 715 739 716 729 706 739 716 730 707 730 707 739 716 740 717 730 707 740 717 731 708 731 708 740 717 741 718 731 708 741 718 732 709 732 709 741 718 742 719 732 709 742 719 733 710 733 710 742 719 743 720 653 630 335 312 734 711 734 711 335 312 350 327 734 711 350 327 735 712 735 712 350 327 351 328 735 712 351 328 736 713 736 713 351 328 352 329 736 713 352 329 737 714 737 714 352 329 353 330 737 714 353 330 738 715 738 715 353 330 354 331 738 715 354 331 739 716 739 716 354 331 355 332 739 716 355 332 740 717 740 717 355 332 356 333 740 717 356 333 741 718 741 718 356 333 357 334 741 718 357 334 742 719 742 719 357 334 358 335 742 719 358 335 743 720 743 720 358 335 248 225 43 43 42 42 744 721 744 721 42 42 663 640 744 721 663 640 745 722 745 722 663 640 673 650 745 722 673 650 746 723 746 723 673 650 683 660 746 723 683 660 747 724 747 724 683 660 693 670 747 724 693 670 748 725 748 725 693 670 703 680 748 725 703 680 749 726 749 726 703 680 713 690 749 726 713 690 750 727 750 727 713 690 723 700 750 727 723 700 751 728 751 728 723 700 733 710 751 728 733 710 752 729 752 729 733 710 743 720 752 729 743 720 256 233 256 233 743 720 248 225 43 43 744 721 44 44 44 44 744 721 753 730 44 44 753 730 45 45 45 45 753 730 754 731 45 45 754 731 46 46 46 46 754 731 755 732 46 46 755 732 49 49 49 49 755 732 756 733 49 49 756 733 50 50 50 50 756 733 757 734 50 50 757 734 52 52 52 52 757 734 758 735 52 52 758 735 51 51 51 51 758 735 759 736 51 51 759 736 48 48 48 48 759 736 760 737 48 48 760 737 47 47 47 47 760 737 761 738 47 47 761 738 31 31 31 31 761 738 762 739 744 721 745 722 753 730 753 730 745 722 763 740 753 730 763 740 754 731 754 731 763 740 764 741 754 731 764 741 755 732 755 732 764 741 765 742 755 732 765 742 756 733 756 733 765 742 766 743 756 733 766 743 757 734 757 734 766 743 767 744 757 734 767 744 758 735 758 735 767 744 768 745 758 735 768 745 759 736 759 736 768 745 769 746 759 736 769 746 760 737 760 737 769 746 770 747 760 737 770 747 761 738 761 738 770 747 771 748 761 738 771 748 762 739 762 739 771 748 772 749 745 722 746 723 763 740 763 740 746 723 773 750 763 740 773 750 764 741 764 741 773 750 774 751 764 741 774 751 765 742 765 742 774 751 775 752 765 742 775 752 766 743 766 743 775 752 776 753 766 743 776 753 767 744 767 744 776 753 777 754 767 744 777 754 768 745 768 745 777 754 778 755 768 745 778 755 769 746 769 746 778 755 779 756 769 746 779 756 770 747 770 747 779 756 780 757 770 747 780 757 771 748 771 748 780 757 781 758 771 748 781 758 772 749 772 749 781 758 782 759 746 723 747 724 773 750 773 750 747 724 783 760 773 750 783 760 774 751 774 751 783 760 784 761 774 751 784 761 775 752 775 752 784 761 785 762 775 752 785 762 776 753 776 753 785 762 786 763 776 753 786 763 777 754 777 754 786 763 787 764 777 754 787 764 778 755 778 755 787 764 788 765 778 755 788 765 779 756 779 756 788 765 789 766 779 756 789 766 780 757 780 757 789 766 790 767 780 757 790 767 781 758 781 758 790 767 791 768 781 758 791 768 782 759 782 759 791 768 792 769 747 724 748 725 783 760 783 760 748 725 793 770 783 760 793 770 784 761 784 761 793 770 794 771 784 761 794 771 785 762 785 762 794 771 795 772 785 762 795 772 786 763 786 763 795 772 796 773 786 763 796 773 787 764 787 764 796 773 797 774 787 764 797 774 788 765 788 765 797 774 798 775 788 765 798 775 789 766 789 766 798 775 799 776 789 766 799 776 790 767 790 767 799 776 800 777 790 767 800 777 791 768 791 768 800 777 801 778 791 768 801 778 792 769 792 769 801 778 802 779 748 725 749 726 793 770 793 770 749 726 803 780 793 770 803 780 794 771 794 771 803 780 804 781 794 771 804 781 795 772 795 772 804 781 805 782 795 772 805 782 796 773 796 773 805 782 806 783 796 773 806 783 797 774 797 774 806 783 807 784 797 774 807 784 798 775 798 775 807 784 808 785 798 775 808 785 799 776 799 776 808 785 809 786 799 776 809 786 800 777 800 777 809 786 810 787 800 777 810 787 801 778 801 778 810 787 811 788 801 778 811 788 802 779 802 779 811 788 812 789 749 726 750 727 803 780 803 780 750 727 813 790 803 780 813 790 804 781 804 781 813 790 814 791 804 781 814 791 805 782 805 782 814 791 815 792 805 782 815 792 806 783 806 783 815 792 816 793 806 783 816 793 807 784 807 784 816 793 817 794 807 784 817 794 808 785 808 785 817 794 818 795 808 785 818 795 809 786 809 786 818 795 819 796 809 786 819 796 810 787 810 787 819 796 820 797 810 787 820 797 811 788 811 788 820 797 821 798 811 788 821 798 812 789 812 789 821 798 822 799 750 727 751 728 813 790 813 790 751 728 823 800 813 790 823 800 814 791 814 791 823 800 824 801 814 791 824 801 815 792 815 792 824 801 825 802 815 792 825 802 816 793 816 793 825 802 826 803 816 793 826 803 817 794 817 794 826 803 827 804 817 794 827 804 818 795 818 795 827 804 828 805 818 795 828 805 819 796 819 796 828 805 829 806 819 796 829 806 820 797 820 797 829 806 830 807 820 797 830 807 821 798 821 798 830 807 831 808 821 798 831 808 822 799 822 799 831 808 832 809 751 728 752 729 823 800 823 800 752 729 833 810 823 800 833 810 824 801 824 801 833 810 834 811 824 801 834 811 825 802 825 802 834 811 835 812 825 802 835 812 826 803 826 803 835 812 836 813 826 803 836 813 827 804 827 804 836 813 837 814 827 804 837 814 828 805 828 805 837 814 838 815 828 805 838 815 829 806 829 806 838 815 839 816 829 806 839 816 830 807 830 807 839 816 840 817 830 807 840 817 831 808 831 808 840 817 841 818 831 808 841 818 832 809 832 809 841 818 842 819 752 729 256 233 833 810 833 810 256 233 377 354 833 810 377 354 834 811 834 811 377 354 378 355 834 811 378 355 835 812 835 812 378 355 379 356 835 812 379 356 836 813 836 813 379 356 380 357 836 813 380 357 837 814 837 814 380 357 381 358 837 814 381 358 838 815 838 815 381 358 382 359 838 815 382 359 839 816 839 816 382 359 383 360 839 816 383 360 840 817 840 817 383 360 384 361 840 817 384 361 841 818 841 818 384 361 385 362 841 818 385 362 842 819 842 819 385 362 324 301 843 820 344 321 58 58 58 58 344 321 844 821 845 822 61 61 844 821 844 821 61 61 60 60 844 821 60 60 58 58 846 823 76 76 845 822 845 822 76 76 75 75 845 822 75 75 61 61 80 80 81 81 846 823 846 823 81 81 77 77 846 823 77 77 76 76 846 823 847 824 80 80 80 80 847 824 848 825 80 80 848 825 54 54 54 54 848 825 849 826 54 54 849 826 56 56 56 56 849 826 850 827 56 56 850 827 62 62 62 62 850 827 851 828 62 62 851 828 65 65 65 65 851 828 852 829 65 65 852 829 72 72 72 72 852 829 320 297 72 72 320 297 70 70 29 29 31 31 853 830 853 830 31 31 762 739 853 830 762 739 854 831 854 831 762 739 772 749 854 831 772 749 855 832 855 832 772 749 782 759 855 832 782 759 856 833 856 833 782 759 792 769 856 833 792 769 857 834 857 834 792 769 802 779 857 834 802 779 858 835 858 835 802 779 812 789 858 835 812 789 859 836 859 836 812 789 822 799 859 836 822 799 860 837 860 837 822 799 832 809 860 837 832 809 861 838 861 838 832 809 842 819 861 838 842 819 323 300 323 300 842 819 324 301 346 323 29 29 853 830 348 325 346 323 862 839 344 321 348 325 863 840 344 321 863 840 844 821 844 821 863 840 864 841 844 821 864 841 845 822 845 822 864 841 865 842 845 822 865 842 846 823 846 823 865 842 866 843 846 823 866 843 847 824 847 824 866 843 867 844 847 824 867 844 848 825 848 825 867 844 868 845 848 825 868 845 849 826 849 826 868 845 869 846 849 826 869 846 850 827 850 827 869 846 870 847 850 827 870 847 851 828 851 828 870 847 871 848 851 828 871 848 852 829 852 829 871 848 321 298 852 829 321 298 320 297 348 325 862 839 863 840 863 840 862 839 872 849 863 840 872 849 864 841 864 841 872 849 873 850 864 841 873 850 865 842 865 842 873 850 874 851 865 842 874 851 866 843 866 843 874 851 875 852 866 843 875 852 867 844 867 844 875 852 876 853 867 844 876 853 868 845 868 845 876 853 877 854 868 845 877 854 869 846 869 846 877 854 878 855 869 846 878 855 870 847 870 847 878 855 879 856 870 847 879 856 871 848 871 848 879 856 322 299 871 848 322 299 321 298 346 323 853 830 862 839 862 839 853 830 854 831 862 839 854 831 872 849 872 849 854 831 855 832 872 849 855 832 873 850 873 850 855 832 856 833 873 850 856 833 874 851 874 851 856 833 857 834 874 851 857 834 875 852 875 852 857 834 858 835 875 852 858 835 876 853 876 853 858 835 859 836 876 853 859 836 877 854 877 854 859 836 860 837 877 854 860 837 878 855 878 855 860 837 861 838 878 855 861 838 879 856 879 856 861 838 323 300 879 856 323 300 322 299 88 88 246 223 87 87 87 87 246 223 245 222 87 87 245 222 85 85 85 85 245 222 244 221 85 85 244 221 110 110 110 110 244 221 294 271 110 110 294 271 111 111 111 111 294 271 293 270 111 111 293 270 112 112 112 112 293 270 290 267 112 112 290 267 154 154 154 154 290 267 289 266 154 154 289 266 155 155 155 155 289 266 288 265 155 155 288 265 156 156 156 156 288 265 316 293 156 156 316 293 157 157 157 157 316 293 315 292 157 157 315 292 158 158 158 158 315 292 314 291 158 158 314 291 159 159 159 159 314 291 319 296 159 159 319 296 138 138 138 138 319 296 318 295 138 138 318 295 113 113 113 113 318 295 317 294 113 113 317 294 114 114 114 114 317 294 305 282 114 114 305 282 139 139 139 139 305 282 304 281 139 139 304 281 140 140 140 140 304 281 303 280 140 140 303 280 141 141 141 141 303 280 287 264 141 141 287 264 92 92 92 92 287 264 286 263 92 92 286 263 122 122 122 122 286 263 285 262 122 122 285 262 109 109 109 109 285 262 284 261 109 109 284 261 108 108 108 108 284 261 283 260 108 108 283 260 107 107 107 107 283 260 282 259 107 107 282 259 135 135 135 135 282 259 274 251 135 135 274 251 136 136 136 136 274 251 273 250 136 136 273 250 137 137 137 137 273 250 272 249 137 137 272 249 124 124 124 124 272 249 281 258 124 124 281 258 125 125 125 125 281 258 280 257 125 125 280 257 126 126 126 126 280 257 261 238 126 126 261 238 95 95 95 95 261 238 260 237 95 95 260 237 93 93 93 93 260 237 259 236 93 93 259 236 94 94 94 94 259 236 253 230 94 94 253 230 100 100 100 100 253 230 252 229 100 100 252 229 101 101 101 101 252 229 251 228 101 101 251 228 82 82 82 82 251 228 250 227 82 82 250 227 83 83 83 83 250 227 249 226 83 83 249 226 89 89 89 89 249 226 247 224 89 89 247 224 88 88 88 88 247 224 246 223 143 143 278 255 144 144 144 144 278 255 279 256 144 144 279 256 115 115 115 115 279 256 258 235 115 115 258 235 116 116 116 116 258 235 257 234 116 116 257 234 117 117 117 117 257 234 277 254 117 117 277 254 118 118 118 118 277 254 276 253 118 118 276 253 145 145 145 145 276 253 275 252 145 145 275 252 146 146 146 146 275 252 302 279 146 146 302 279 147 147 147 147 302 279 301 278 147 147 301 278 127 127 127 127 301 278 300 277 127 127 300 277 128 128 128 128 300 277 299 276 128 128 299 276 130 130 130 130 299 276 298 275 130 130 298 275 131 131 131 131 298 275 297 274 131 131 297 274 132 132 132 132 297 274 292 269 132 132 292 269 133 133 133 133 292 269 291 268 133 133 291 268 134 134 134 134 291 268 313 290 134 134 313 290 148 148 148 148 313 290 312 289 148 148 312 289 149 149 149 149 312 289 311 288 149 149 311 288 150 150 150 150 311 288 310 287 150 150 310 287 151 151 151 151 310 287 309 286 151 151 309 286 152 152 152 152 309 286 296 273 152 152 296 273 153 153 153 153 296 273 295 272 153 153 295 272 102 102 102 102 295 272 308 285 102 102 308 285 103 103 103 103 308 285 307 284 103 103 307 284 105 105 105 105 307 284 306 283 105 105 306 283 106 106 106 106 306 283 271 248 106 106 271 248 119 119 119 119 271 248 270 247 119 119 270 247 120 120 120 120 270 247 269 246 120 120 269 246 121 121 121 121 269 246 255 232 121 121 255 232 123 123 123 123 255 232 254 231 123 123 254 231 96 96 96 96 254 231 268 245 96 96 268 245 97 97 97 97 268 245 267 244 97 97 267 244 98 98 98 98 267 244 266 243 98 98 266 243 99 99 99 99 266 243 265 242 99 99 265 242 90 90 90 90 265 242 264 241 90 90 264 241 91 91 91 91 264 241 263 240 91 91 263 240 142 142 142 142 263 240 262 239 142 142 262 239 143 143 143 143 262 239 278 255</p>
        </triangles>
      </mesh>
    </geometry>
  </library_geometries>
  <library_visual_scenes>
    <visual_scene id="Scene" name="Scene">
      <node id="铲斗" name="铲斗" type="NODE">
        <matrix sid="transform">1 0 0 0 0 1 0 0 0 0 1 0 0 0 0 1</matrix>
        <instance_geometry url="#铲斗-mesh" name="铲斗"/>
      </node>
    </visual_scene>
  </library_visual_scenes>
  <scene>
    <instance_visual_scene url="#Scene"/>
  </scene>
</COLLADA>